#N canvas 251 23 1107 836 10;
#X obj -42 306 moses 100;
#X obj -42 377 moses 75;
#X msg 24 231 127;
#X msg 24 272 60;
#X obj 170 482 bng 15 250 50 0 empty empty empty 17 7 0 10 -262144
-1 -1;
#X msg 24 251 85;
#N canvas 448 55 1440 851 trigger_samples_for_velocity_of_100-127 0
;
#N canvas 0 22 450 300 (subpatch) 0;
#X array sampler.A3 70671 float 2;
#X coords 0 1 70671 -1 600 100 1 0 0;
#X restore 326 78 graph;
#X obj 329 44 hsl 600 15 0 1 0 0 empty empty empty -2 -8 0 10 -262144
-1 -1 0 1;
#X obj -89 40 bng 15 250 50 0 empty empty empty 17 7 0 10 -262144 -1
-1;
#X obj -89 125 soundfiler;
#X obj -88 65 openpanel;
#X floatatom -88 321 10 0 0 0 - - -;
#X floatatom -73 820 12 0 0 0 - - -;
#X obj -88 846 *~;
#X obj 76 245 samplerate~;
#X floatatom -88 271 15 0 0 0 - - -;
#X floatatom -89 152 12 0 0 0 - - -;
#X obj -88 595 *;
#X floatatom -73 572 10 0 0 0 - - -;
#X floatatom 78 273 10 0 0 0 - - -;
#X floatatom -88 397 10 0 0 0 - - -;
#X floatatom -88 619 10 0 0 0 - - -;
#X obj -13 744 nbx 5 14 -1e+37 1e+37 0 0 empty empty empty 0 -8 0 10
-262144 -1 -1 0 256;
#X obj -13 719 unsig~ 1;
#X obj -73 879 unsig~ 1;
#X msg -88 497 \$1 \$2;
#X obj -88 473 pack f f;
#X floatatom -43 446 10 0 0 0 - - -;
#X obj -88 521 line;
#X obj 76 224 loadbang;
#X obj -88 296 expr $f2 / $f1;
#X floatatom -73 902 12 0 0 0 - - -;
#X obj -89 16 inlet;
#X obj 329 927 outlet~;
#X obj 330 896 *~ 1;
#X obj 358 471 bng 15 250 50 0 empty empty empty 17 7 0 10 -262144
-1 -1;
#X obj 359 496 t b b;
#X obj 707 549 samplerate~;
#X floatatom 605 573 15 0 0 0 - - -;
#X floatatom 707 570 10 0 0 0 - - -;
#X obj 707 528 loadbang;
#X obj 706 502 bng 15 250 50 0 empty empty empty 17 7 0 10 -262144
-1 -1;
#X floatatom 622 629 10 0 0 0 - - -;
#X msg 360 636 0;
#X text 87 602 comment;
#X text 387 636 parar;
#X text 405 557 reproducir;
#X obj 361 560 bng 15 250 50 0 empty empty empty 17 7 0 10 -262144
-1 -1;
#X floatatom 2 582 5 0 0 0 - - -;
#X obj 550 675 bng 15 250 50 0 empty empty empty 17 7 0 10 -262144
-1 -1;
#X text 379 468 impluso de entrada;
#X text 796 606 cuenta para stop antes de repetir sample como loop
;
#X obj 360 604 loadbang;
#X msg 572 673 0;
#X obj 550 649 delay 6000;
#X msg 450 636 0;
#X obj 550 725 delay 10;
#X text 12 56 carga de sample;
#X obj 357 327 inlet;
#X obj 17 114 print;
#X obj -89 696 phasor~ 0;
#X msg 549 748 0;
#X obj -89 177 s \$0-cantidad-de-muestras3;
#X obj -88 206 r \$0-cantidad-de-muestras3;
#X obj -23 342 s \$0-frecuencia-de-lectura-sin-transposicion3;
#X obj -43 422 r \$0-frecuencia-de-lectura-interpolacion3;
#X obj 15 527 r \$0-frecuencia-de-lectura-sin-transposicion3;
#X obj 72 642 r pararsample3;
#X obj 168 643 r retrigger3;
#X obj -14 766 s \$0-posicion3;
#X obj -73 796 r \$0-cantidad-de-muestras3;
#X obj -88 976 s~ \$0-phasor3;
#X obj 329 807 r~ \$0-phasor3;
#X obj 548 780 s retrigger3;
#X obj 571 700 s pararsample3;
#X obj 360 673 s pararsample3;
#X obj 451 673 s retrigger3;
#X obj 606 482 r \$0-cantidad-de-muestras3;
#X obj 326 20 r \$0-posicion3;
#X obj 605 606 expr (($f1 / $f2) * 1000) - 0.1;
#X obj 583 541 bng 15 250 50 0 empty empty empty 17 7 0 10 -262144
-1 -1;
#X obj 96 200 bng 15 250 50 0 empty empty empty 17 7 0 10 -262144 -1
-1;
#X obj -19 66 loadbang;
#X obj 329 832 tabread4~ sampler.A3;
#X msg -89 88 read -resize aguila/4.wav sampler.A3;
#X connect 2 0 4 0;
#X connect 3 0 10 0;
#X connect 4 0 78 0;
#X connect 5 0 14 0;
#X connect 5 0 12 0;
#X connect 5 0 58 0;
#X connect 6 0 7 1;
#X connect 7 0 18 0;
#X connect 7 0 65 0;
#X connect 8 0 13 0;
#X connect 9 0 24 0;
#X connect 10 0 56 0;
#X connect 11 0 15 0;
#X connect 12 0 11 1;
#X connect 13 0 24 1;
#X connect 14 0 20 0;
#X connect 15 0 54 0;
#X connect 16 0 63 0;
#X connect 17 0 16 0;
#X connect 18 0 25 0;
#X connect 19 0 22 0;
#X connect 20 0 19 0;
#X connect 21 0 20 1;
#X connect 22 0 11 0;
#X connect 23 0 8 0;
#X connect 24 0 5 0;
#X connect 26 0 2 0;
#X connect 28 0 27 0;
#X connect 29 0 30 0;
#X connect 30 0 41 0;
#X connect 30 0 49 0;
#X connect 30 1 48 0;
#X connect 31 0 33 0;
#X connect 32 0 73 0;
#X connect 33 0 73 1;
#X connect 34 0 31 0;
#X connect 35 0 34 0;
#X connect 37 0 69 0;
#X connect 41 0 42 0;
#X connect 42 0 54 0;
#X connect 43 0 50 0;
#X connect 46 0 37 0;
#X connect 47 0 68 0;
#X connect 48 0 43 0;
#X connect 48 0 47 0;
#X connect 49 0 70 0;
#X connect 50 0 55 0;
#X connect 52 0 29 0;
#X connect 54 0 7 0;
#X connect 54 0 17 0;
#X connect 55 0 67 0;
#X connect 57 0 9 0;
#X connect 59 0 21 0;
#X connect 60 0 42 0;
#X connect 61 0 54 0;
#X connect 62 0 54 1;
#X connect 64 0 6 0;
#X connect 66 0 77 0;
#X connect 71 0 32 0;
#X connect 72 0 1 0;
#X connect 73 0 36 0;
#X connect 73 0 48 0;
#X connect 74 0 32 0;
#X connect 75 0 23 0;
#X connect 76 0 78 0;
#X connect 77 0 28 0;
#X connect 78 0 3 0;
#X connect 78 0 53 0;
#X restore 165 624 pd trigger_samples_for_velocity_of_100-127;
#X obj -74 251 stripnote;
#X obj -53 -103 midiin;
#X obj -55 -79 midiparse;
#X msg -67 188 14;
#X obj -36 160 bng 15 250 50 0 empty empty empty 17 7 0 10 -262144
-1 -1;
#X obj -53 122 route 1;
#X text -42 2 routea según cada nota midi;
#X obj -58 478 bng 15 250 50 0 empty empty empty 17 7 0 10 -262144
-1 -1;
#X text 73 480 triggea sample;
#X obj 325 537 bng 15 250 50 0 empty empty empty 17 7 0 10 -262144
-1 -1;
#X obj 85 539 bng 15 250 50 0 empty empty empty 17 7 0 10 -262144 -1
-1;
#X text 208 543 triggea sample;
#N canvas 226 37 914 766 trigger_samples_for_velocity_of_76-99 0;
#N canvas 0 22 450 300 (subpatch) 0;
#X array sampler.A2 61418 float 2;
#X coords 0 1 61418 -1 600 100 1 0 0;
#X restore 316 68 graph;
#X obj 319 34 hsl 600 15 0 1 0 0 empty empty empty -2 -8 0 10 -262144
-1 -1 0 1;
#X obj -99 30 bng 15 250 50 0 empty empty empty 17 7 0 10 -262144 -1
-1;
#X obj -99 115 soundfiler;
#X obj -98 55 openpanel;
#X floatatom -98 311 10 0 0 0 - - -;
#X floatatom -83 810 12 0 0 0 - - -;
#X obj -98 836 *~;
#X obj -17 240 samplerate~;
#X floatatom -98 261 15 0 0 0 - - -;
#X floatatom -99 142 12 0 0 0 - - -;
#X obj -98 585 *;
#X floatatom -83 562 10 0 0 0 - - -;
#X floatatom -17 261 10 0 0 0 - - -;
#X floatatom -98 387 10 0 0 0 - - -;
#X floatatom -98 609 10 0 0 0 - - -;
#X obj -23 734 nbx 5 14 -1e+37 1e+37 0 0 empty empty empty 0 -8 0 10
-262144 -1 -1 0 256;
#X obj -23 709 unsig~ 1;
#X obj -83 869 unsig~ 1;
#X msg -98 487 \$1 \$2;
#X obj -98 463 pack f f;
#X floatatom -53 436 10 0 0 0 - - -;
#X obj -98 511 line;
#X obj -17 219 loadbang;
#X obj -98 286 expr $f2 / $f1;
#X floatatom -83 892 12 0 0 0 - - -;
#X obj -99 6 inlet;
#X obj 319 917 outlet~;
#X obj 320 886 *~ 1;
#X obj 348 461 bng 15 250 50 0 empty empty empty 17 7 0 10 -262144
-1 -1;
#X obj 349 486 t b b;
#X obj 697 539 samplerate~;
#X floatatom 595 563 15 0 0 0 - - -;
#X floatatom 697 560 10 0 0 0 - - -;
#X obj 697 518 loadbang;
#X obj 696 492 bng 15 250 50 0 empty empty empty 17 7 0 10 -262144
-1 -1;
#X floatatom 612 619 10 0 0 0 - - -;
#X msg 350 626 0;
#X text 77 592 comment;
#X text 377 626 parar;
#X text 395 547 reproducir;
#X obj 351 550 bng 15 250 50 0 empty empty empty 17 7 0 10 -262144
-1 -1;
#X floatatom -8 572 5 0 0 0 - - -;
#X obj 540 665 bng 15 250 50 0 empty empty empty 17 7 0 10 -262144
-1 -1;
#X text 369 458 impluso de entrada;
#X text 786 596 cuenta para stop antes de repetir sample como loop
;
#X obj 350 594 loadbang;
#X msg 562 663 0;
#X obj 595 596 expr (($f1 / $f2) * 1000) - 0.1;
#X obj 540 639 delay 6000;
#X msg 440 626 0;
#X obj 540 715 delay 10;
#X obj 347 317 inlet;
#X obj -98 966 s~ \$0-phasor2;
#X obj 319 797 r~ \$0-phasor2;
#X obj 561 690 s pararsample2;
#X obj 538 770 s retrigger2;
#X obj 441 663 s retrigger2;
#X obj 350 663 s pararsample2;
#X obj 62 632 r pararsample2;
#X obj 158 633 r retrigger2;
#X obj -53 412 r \$0-frecuencia-de-lectura-interpolacion2;
#X obj -33 332 s \$0-frecuencia-de-lectura-sin-transposicion2;
#X obj 5 516 r \$0-frecuencia-de-lectura-sin-transposicion2;
#X obj 596 472 r \$0-cantidad-de-muestras2;
#X obj -99 167 s \$0-cantidad-de-muestras2;
#X obj -98 196 r \$0-cantidad-de-muestras2;
#X obj 7 104 print;
#X obj -83 786 r \$0-cantidad-de-muestras2;
#X obj -99 686 phasor~ 0;
#X obj -23 756 s \$0-posicion2;
#X obj 316 10 r \$0-posicion2;
#X msg 539 738 0;
#X obj -32 57 loadbang;
#X msg -98 78 read -resize aguila/3.wav sampler.A2;
#X text -71 29 comment;
#X obj 319 822 tabread4~ sampler.A2;
#X connect 2 0 4 0;
#X connect 3 0 10 0;
#X connect 4 0 74 0;
#X connect 5 0 14 0;
#X connect 5 0 12 0;
#X connect 5 0 62 0;
#X connect 6 0 7 1;
#X connect 7 0 18 0;
#X connect 7 0 53 0;
#X connect 8 0 13 0;
#X connect 9 0 24 0;
#X connect 10 0 65 0;
#X connect 11 0 15 0;
#X connect 12 0 11 1;
#X connect 13 0 24 1;
#X connect 14 0 20 0;
#X connect 15 0 69 0;
#X connect 16 0 70 0;
#X connect 17 0 16 0;
#X connect 18 0 25 0;
#X connect 19 0 22 0;
#X connect 20 0 19 0;
#X connect 21 0 20 1;
#X connect 22 0 11 0;
#X connect 23 0 8 0;
#X connect 24 0 5 0;
#X connect 26 0 2 0;
#X connect 28 0 27 0;
#X connect 29 0 30 0;
#X connect 30 0 41 0;
#X connect 30 0 50 0;
#X connect 30 1 49 0;
#X connect 31 0 33 0;
#X connect 32 0 48 0;
#X connect 33 0 48 1;
#X connect 34 0 31 0;
#X connect 35 0 34 0;
#X connect 37 0 58 0;
#X connect 41 0 42 0;
#X connect 42 0 69 0;
#X connect 43 0 51 0;
#X connect 46 0 37 0;
#X connect 47 0 55 0;
#X connect 48 0 36 0;
#X connect 48 0 49 0;
#X connect 49 0 43 0;
#X connect 49 0 47 0;
#X connect 50 0 57 0;
#X connect 51 0 72 0;
#X connect 52 0 29 0;
#X connect 54 0 76 0;
#X connect 59 0 69 0;
#X connect 60 0 69 1;
#X connect 61 0 21 0;
#X connect 63 0 42 0;
#X connect 64 0 32 0;
#X connect 66 0 9 0;
#X connect 68 0 6 0;
#X connect 69 0 7 0;
#X connect 69 0 17 0;
#X connect 71 0 1 0;
#X connect 72 0 56 0;
#X connect 73 0 74 0;
#X connect 74 0 3 0;
#X connect 74 0 67 0;
#X connect 76 0 28 0;
#X restore 90 564 pd trigger_samples_for_velocity_of_76-99;
#X obj 413 598 bng 15 250 50 0 empty empty empty 17 7 0 10 -262144
-1 -1;
#X text 178 591 carga sample;
#X obj 159 590 bng 15 250 50 0 empty empty empty 17 7 0 10 -262144
-1 -1;
#X text 278 592 triggea sample;
#X text -33 465 cambio de sample;
#X text 108 542 cambio de sample;
#X obj 470 30 route 2;
#X obj 483 216 moses 100;
#X obj 483 274 moses 75;
#X msg 549 141 127;
#X msg 549 182 60;
#X msg 549 161 85;
#X obj 451 161 stripnote;
#X obj 489 70 bng 15 250 50 0 empty empty empty 17 7 0 10 -262144 -1
-1;
#X obj 730 343 bng 15 250 50 0 empty empty empty 17 7 0 10 -262144
-1 -1;
#N canvas 172 119 1440 851 trigger_samples_for_velocity_of_100-127
0;
#N canvas 0 22 450 300 (subpatch) 0;
#X array sampler.B3 86470 float 2;
#X coords 0 1 86470 -1 600 100 1 0 0;
#X restore 325 77 graph;
#X obj 329 44 hsl 600 15 0 1 0 0 empty empty empty -2 -8 0 10 -262144
-1 -1 0 1;
#X obj -89 40 bng 15 250 50 0 empty empty empty 17 7 0 10 -262144 -1
-1;
#X obj -89 125 soundfiler;
#X obj -88 65 openpanel;
#X floatatom -88 321 10 0 0 0 - - -;
#X floatatom -73 820 12 0 0 0 - - -;
#X obj -88 846 *~;
#X obj 76 245 samplerate~;
#X floatatom -88 271 15 0 0 0 - - -;
#X floatatom -89 152 12 0 0 0 - - -;
#X obj -88 595 *;
#X floatatom -73 572 10 0 0 0 - - -;
#X floatatom 78 273 10 0 0 0 - - -;
#X floatatom -88 397 10 0 0 0 - - -;
#X floatatom -88 619 10 0 0 0 - - -;
#X obj -13 744 nbx 5 14 -1e+37 1e+37 0 0 empty empty empty 0 -8 0 10
-262144 -1 -1 0 256;
#X obj -13 719 unsig~ 1;
#X obj -73 879 unsig~ 1;
#X msg -88 497 \$1 \$2;
#X obj -88 473 pack f f;
#X floatatom -43 446 10 0 0 0 - - -;
#X obj -88 521 line;
#X obj 76 224 loadbang;
#X obj -88 296 expr $f2 / $f1;
#X floatatom -73 902 12 0 0 0 - - -;
#X obj -89 16 inlet;
#X obj 329 927 outlet~;
#X obj 330 896 *~ 1;
#X obj 1103 223 switch~;
#X obj 1103 176 inlet;
#X obj 1066 202 tgl 15 0 empty empty empty 17 7 0 10 -262144 -1 -1
1 1;
#X obj 358 471 bng 15 250 50 0 empty empty empty 17 7 0 10 -262144
-1 -1;
#X obj 359 496 t b b;
#X obj 707 549 samplerate~;
#X floatatom 605 573 15 0 0 0 - - -;
#X floatatom 707 570 10 0 0 0 - - -;
#X obj 707 528 loadbang;
#X obj 706 502 bng 15 250 50 0 empty empty empty 17 7 0 10 -262144
-1 -1;
#X floatatom 622 629 10 0 0 0 - - -;
#X msg 360 636 0;
#X text 87 602 comment;
#X text 387 636 parar;
#X text 405 557 reproducir;
#X obj 361 560 bng 15 250 50 0 empty empty empty 17 7 0 10 -262144
-1 -1;
#X floatatom 2 582 5 0 0 0 - - -;
#X obj 1002 176 loadbang;
#X obj 550 675 bng 15 250 50 0 empty empty empty 17 7 0 10 -262144
-1 -1;
#X text 379 468 impluso de entrada;
#X text 796 606 cuenta para stop antes de repetir sample como loop
;
#X obj 360 604 loadbang;
#X msg 572 673 0;
#X obj 550 649 delay 6000;
#X msg 450 636 0;
#X obj 550 725 delay 10;
#X text 60 30 carga de sample;
#X obj 357 327 inlet;
#X obj 17 114 print;
#X obj -89 696 phasor~ 0;
#X msg 549 748 0;
#X obj -89 177 s \$0-cantidad-de-muestras3;
#X obj -88 206 r \$0-cantidad-de-muestras3;
#X obj -23 342 s \$0-frecuencia-de-lectura-sin-transposicion3;
#X obj -43 422 r \$0-frecuencia-de-lectura-interpolacion3;
#X obj 15 527 r \$0-frecuencia-de-lectura-sin-transposicion3;
#X obj 72 642 r pararsample3;
#X obj 168 643 r retrigger3;
#X obj -14 766 s \$0-posicion3;
#X obj -73 796 r \$0-cantidad-de-muestras3;
#X obj 548 780 s retrigger3;
#X obj 571 700 s pararsample3;
#X obj 360 673 s pararsample3;
#X obj 451 673 s retrigger3;
#X obj 606 482 r \$0-cantidad-de-muestras3;
#X obj 326 20 r \$0-posicion3;
#X obj 605 606 expr (($f1 / $f2) * 1000) - 0.1;
#X obj 583 541 bng 15 250 50 0 empty empty empty 17 7 0 10 -262144
-1 -1;
#X obj 96 200 bng 15 250 50 0 empty empty empty 17 7 0 10 -262144 -1
-1;
#X obj -19 66 loadbang;
#X obj 329 832 tabread4~ sampler.B3;
#X msg -89 88 read -resize indio/3.wav sampler.B3;
#X obj -88 976 s~ \$0-phasor6;
#X obj 329 807 r~ \$0-phasor6;
#X connect 2 0 4 0;
#X connect 3 0 10 0;
#X connect 4 0 80 0;
#X connect 5 0 14 0;
#X connect 5 0 12 0;
#X connect 5 0 62 0;
#X connect 6 0 7 1;
#X connect 7 0 18 0;
#X connect 7 0 81 0;
#X connect 8 0 13 0;
#X connect 9 0 24 0;
#X connect 10 0 60 0;
#X connect 11 0 15 0;
#X connect 12 0 11 1;
#X connect 13 0 24 1;
#X connect 14 0 20 0;
#X connect 15 0 58 0;
#X connect 16 0 67 0;
#X connect 17 0 16 0;
#X connect 18 0 25 0;
#X connect 19 0 22 0;
#X connect 20 0 19 0;
#X connect 21 0 20 1;
#X connect 22 0 11 0;
#X connect 23 0 8 0;
#X connect 24 0 5 0;
#X connect 26 0 2 0;
#X connect 28 0 27 0;
#X connect 30 0 29 0;
#X connect 31 0 29 0;
#X connect 32 0 33 0;
#X connect 33 0 44 0;
#X connect 33 0 53 0;
#X connect 33 1 52 0;
#X connect 34 0 36 0;
#X connect 35 0 75 0;
#X connect 36 0 75 1;
#X connect 37 0 34 0;
#X connect 38 0 37 0;
#X connect 40 0 71 0;
#X connect 44 0 45 0;
#X connect 45 0 58 0;
#X connect 46 0 31 0;
#X connect 47 0 54 0;
#X connect 50 0 40 0;
#X connect 51 0 70 0;
#X connect 52 0 47 0;
#X connect 52 0 51 0;
#X connect 53 0 72 0;
#X connect 54 0 59 0;
#X connect 56 0 32 0;
#X connect 58 0 7 0;
#X connect 58 0 17 0;
#X connect 59 0 69 0;
#X connect 61 0 9 0;
#X connect 63 0 21 0;
#X connect 64 0 45 0;
#X connect 65 0 58 0;
#X connect 66 0 58 1;
#X connect 68 0 6 0;
#X connect 73 0 35 0;
#X connect 74 0 1 0;
#X connect 75 0 39 0;
#X connect 75 0 52 0;
#X connect 76 0 35 0;
#X connect 77 0 23 0;
#X connect 78 0 80 0;
#X connect 79 0 28 0;
#X connect 80 0 3 0;
#X connect 80 0 57 0;
#X connect 82 0 79 0;
#X restore 672 583 pd trigger_samples_for_velocity_of_100-127;
#N canvas 907 101 839 668 trigger_samples_for_velocity_of_0-75 0;
#N canvas 0 22 450 300 (subpatch) 0;
#X array sampler.B1 64143 float 2;
#X coords 0 1 64143 -1 600 100 1 0 0;
#X restore 316 68 graph;
#X obj 319 34 hsl 600 15 0 1 0 0 empty empty empty -2 -8 0 10 -262144
-1 -1 0 1;
#X obj 316 10 r \$0-posicion;
#X obj -95 26 bng 15 250 50 0 empty empty empty 17 7 0 10 -262144 -1
-1;
#X obj -99 115 soundfiler;
#X obj -99 48 openpanel;
#X floatatom -98 311 10 0 0 0 - - -;
#X floatatom -83 810 12 0 0 0 - - -;
#X obj -98 836 *~;
#X obj -17 240 samplerate~;
#X floatatom -98 261 15 0 0 0 - - -;
#X floatatom -99 142 12 0 0 0 - - -;
#X obj -99 686 phasor~;
#X obj -99 167 s \$0-cantidad-de-muestras;
#X obj -98 196 r \$0-cantidad-de-muestras;
#X obj -83 786 r \$0-cantidad-de-muestras;
#X obj -98 585 *;
#X floatatom -83 562 10 0 0 0 - - -;
#X floatatom -17 261 10 0 0 0 - - -;
#X floatatom -98 387 10 0 0 0 - - -;
#X floatatom -98 609 10 0 0 0 - - -;
#X obj -23 734 nbx 5 14 -1e+37 1e+37 0 0 empty empty empty 0 -8 0 10
-262144 -1 -1 0 256;
#X obj -23 709 unsig~ 1;
#X obj -83 869 unsig~ 1;
#X msg -98 487 \$1 \$2;
#X obj -98 463 pack f f;
#X floatatom -53 436 10 0 0 0 - - -;
#X obj -53 412 r \$0-frecuencia-de-lectura-interpolacion;
#X obj -98 511 line;
#X obj -23 756 s \$0-posicion;
#X obj -59 633 r \$0-phasor-fase;
#X floatatom -59 657 10 0 0 0 - - -;
#X obj -17 219 loadbang;
#X obj -98 286 expr $f2 / $f1;
#X obj -33 332 s \$0-frecuencia-de-lectura-sin-transposicion;
#X obj 5 516 r \$0-frecuencia-de-lectura-sin-transposicion;
#X floatatom -83 892 12 0 0 0 - - -;
#X obj -99 6 inlet;
#X obj 319 917 outlet~;
#X obj 320 886 *~ 1;
#X obj -68 947 print;
#X obj 348 461 bng 15 250 50 0 empty empty empty 17 7 0 10 -262144
-1 -1;
#X obj 349 486 t b b;
#X obj 596 471 r \$0-cantidad-de-muestras;
#X obj 697 539 samplerate~;
#X floatatom 595 563 15 0 0 0 - - -;
#X floatatom 697 560 10 0 0 0 - - -;
#X obj 697 518 loadbang;
#X obj 696 492 bng 15 250 50 0 empty empty empty 17 7 0 10 -262144
-1 -1;
#X floatatom 612 619 10 0 0 0 - - -;
#X msg 350 626 0;
#X text 77 592 comment;
#X text 377 626 parar;
#X text 395 547 reproducir;
#X obj 351 550 bng 15 250 50 0 empty empty empty 17 7 0 10 -262144
-1 -1;
#X floatatom -8 572 5 0 0 0 - - -;
#X obj 540 665 bng 15 250 50 0 empty empty empty 17 7 0 10 -262144
-1 -1;
#X text 369 458 impluso de entrada;
#X text 786 596 cuenta para stop antes de repetir sample como loop
;
#X obj 350 594 loadbang;
#X msg 562 663 0;
#X obj 62 632 r pararsample;
#X obj 149 633 r retrigger;
#X obj 561 690 s pararsample;
#X obj 350 664 s pararsample;
#X obj 595 596 expr (($f1 / $f2) * 1000) - 0.1;
#X obj -24 117 bng 15 250 50 0 empty empty empty 17 7 0 10 -262144
-1 -1;
#X obj 540 639 delay 6000;
#X obj 441 663 s retrigger;
#X msg 440 626 0;
#X obj 540 715 delay 10;
#X obj 540 776 s retrigger;
#X text -7 37 carga de sample;
#X obj 347 317 inlet;
#X msg 549 748 0;
#X obj -38 58 loadbang;
#X obj 319 822 tabread4~ sampler.B1;
#X msg -99 83 read -resize indio/0.wav sampler.B1;
#X obj -98 966 s~ \$0-phasor4;
#X obj 319 797 r~ \$0-phasor4;
#X connect 2 0 1 0;
#X connect 3 0 5 0;
#X connect 4 0 11 0;
#X connect 5 0 77 0;
#X connect 6 0 19 0;
#X connect 6 0 17 0;
#X connect 6 0 34 0;
#X connect 7 0 8 1;
#X connect 8 0 23 0;
#X connect 8 0 78 0;
#X connect 9 0 18 0;
#X connect 10 0 33 0;
#X connect 11 0 13 0;
#X connect 12 0 8 0;
#X connect 12 0 22 0;
#X connect 14 0 10 0;
#X connect 15 0 7 0;
#X connect 16 0 20 0;
#X connect 17 0 16 1;
#X connect 18 0 33 1;
#X connect 19 0 25 0;
#X connect 20 0 12 0;
#X connect 21 0 29 0;
#X connect 22 0 21 0;
#X connect 23 0 36 0;
#X connect 24 0 28 0;
#X connect 25 0 24 0;
#X connect 26 0 25 1;
#X connect 27 0 26 0;
#X connect 28 0 16 0;
#X connect 30 0 31 0;
#X connect 31 0 12 1;
#X connect 32 0 9 0;
#X connect 33 0 6 0;
#X connect 35 0 55 0;
#X connect 37 0 3 0;
#X connect 39 0 38 0;
#X connect 41 0 42 0;
#X connect 42 0 54 0;
#X connect 42 0 69 0;
#X connect 42 1 67 0;
#X connect 43 0 45 0;
#X connect 44 0 46 0;
#X connect 45 0 65 0;
#X connect 46 0 65 1;
#X connect 47 0 44 0;
#X connect 48 0 47 0;
#X connect 50 0 64 0;
#X connect 54 0 55 0;
#X connect 55 0 12 0;
#X connect 56 0 70 0;
#X connect 59 0 50 0;
#X connect 60 0 63 0;
#X connect 61 0 12 0;
#X connect 62 0 12 1;
#X connect 65 0 49 0;
#X connect 65 0 67 0;
#X connect 66 0 11 0;
#X connect 67 0 56 0;
#X connect 67 0 60 0;
#X connect 69 0 68 0;
#X connect 70 0 74 0;
#X connect 73 0 41 0;
#X connect 74 0 71 0;
#X connect 75 0 77 0;
#X connect 76 0 39 0;
#X connect 77 0 4 0;
#X connect 79 0 76 0;
#X restore 499 376 pd trigger_samples_for_velocity_of_0-75;
#X obj 538 724 output~;
#X obj 498 355 bng 15 250 50 0 empty empty empty 17 7 0 10 -262144
-1 -1;
#X text 617 355 triggea sample;
#X obj 829 438 bng 15 250 50 0 empty empty empty 17 7 0 10 -262144
-1 -1;
#X obj 596 446 bng 15 250 50 0 empty empty empty 17 7 0 10 -262144
-1 -1;
#X text 719 462 triggea sample;
#N canvas 0 22 1440 799 trigger_samples_for_velocity_of_76-99 0;
#N canvas 0 22 450 300 (subpatch) 0;
#X array sampler.B2 77217 float 2;
#X coords 0 1 77217 -1 600 100 1 0 0;
#X restore 316 68 graph;
#X obj 319 34 hsl 600 15 0 1 0 0 empty empty empty -2 -8 0 10 -262144
-1 -1 0 1;
#X obj -99 30 bng 15 250 50 0 empty empty empty 17 7 0 10 -262144 -1
-1;
#X obj -99 115 soundfiler;
#X obj -98 55 openpanel;
#X floatatom -98 311 10 0 0 0 - - -;
#X floatatom -83 810 12 0 0 0 - - -;
#X obj -98 836 *~;
#X obj -17 240 samplerate~;
#X floatatom -98 261 15 0 0 0 - - -;
#X floatatom -99 142 12 0 0 0 - - -;
#X obj -98 585 *;
#X floatatom -83 562 10 0 0 0 - - -;
#X floatatom -17 261 10 0 0 0 - - -;
#X floatatom -98 387 10 0 0 0 - - -;
#X floatatom -98 609 10 0 0 0 - - -;
#X obj -23 734 nbx 5 14 -1e+37 1e+37 0 0 empty empty empty 0 -8 0 10
-262144 -1 -1 0 256;
#X obj -23 709 unsig~ 1;
#X obj -83 869 unsig~ 1;
#X msg -98 487 \$1 \$2;
#X obj -98 463 pack f f;
#X floatatom -53 436 10 0 0 0 - - -;
#X obj -98 511 line;
#X obj -17 219 loadbang;
#X obj -98 286 expr $f2 / $f1;
#X floatatom -83 892 12 0 0 0 - - -;
#X obj -99 6 inlet;
#X obj 319 917 outlet~;
#X obj 320 886 *~ 1;
#X obj 348 461 bng 15 250 50 0 empty empty empty 17 7 0 10 -262144
-1 -1;
#X obj 349 486 t b b;
#X obj 697 539 samplerate~;
#X floatatom 595 563 15 0 0 0 - - -;
#X floatatom 697 560 10 0 0 0 - - -;
#X obj 697 518 loadbang;
#X obj 696 492 bng 15 250 50 0 empty empty empty 17 7 0 10 -262144
-1 -1;
#X floatatom 612 619 10 0 0 0 - - -;
#X msg 350 626 0;
#X text 77 592 comment;
#X text 377 626 parar;
#X text 395 547 reproducir;
#X obj 351 550 bng 15 250 50 0 empty empty empty 17 7 0 10 -262144
-1 -1;
#X floatatom -8 572 5 0 0 0 - - -;
#X obj 540 665 bng 15 250 50 0 empty empty empty 17 7 0 10 -262144
-1 -1;
#X text 369 458 impluso de entrada;
#X text 786 596 cuenta para stop antes de repetir sample como loop
;
#X obj 350 594 loadbang;
#X msg 562 663 0;
#X obj 595 596 expr (($f1 / $f2) * 1000) - 0.1;
#X obj 540 639 delay 6000;
#X msg 440 626 0;
#X obj 540 715 delay 10;
#X text 2 46 carga de sample;
#X obj 347 317 inlet;
#X obj 561 690 s pararsample2;
#X obj 538 770 s retrigger2;
#X obj 441 663 s retrigger2;
#X obj 350 663 s pararsample2;
#X obj 62 632 r pararsample2;
#X obj 158 633 r retrigger2;
#X obj -53 412 r \$0-frecuencia-de-lectura-interpolacion2;
#X obj -33 332 s \$0-frecuencia-de-lectura-sin-transposicion2;
#X obj 5 516 r \$0-frecuencia-de-lectura-sin-transposicion2;
#X obj 596 472 r \$0-cantidad-de-muestras2;
#X obj -99 167 s \$0-cantidad-de-muestras2;
#X obj -98 196 r \$0-cantidad-de-muestras2;
#X obj 7 104 print;
#X obj -83 786 r \$0-cantidad-de-muestras2;
#X obj -99 686 phasor~ 0;
#X obj -23 756 s \$0-posicion2;
#X obj 316 10 r \$0-posicion2;
#X msg 539 738 0;
#X obj -32 57 loadbang;
#X obj 319 822 tabread4~ sampler.B2;
#X obj -98 966 s~ \$0-phasor5;
#X obj 319 797 r~ \$0-phasor5;
#X msg -99 78 read -resize indio/2.wav sampler.B2;
#X connect 2 0 4 0;
#X connect 3 0 10 0;
#X connect 4 0 76 0;
#X connect 5 0 14 0;
#X connect 5 0 12 0;
#X connect 5 0 61 0;
#X connect 6 0 7 1;
#X connect 7 0 18 0;
#X connect 7 0 74 0;
#X connect 8 0 13 0;
#X connect 9 0 24 0;
#X connect 10 0 64 0;
#X connect 11 0 15 0;
#X connect 12 0 11 1;
#X connect 13 0 24 1;
#X connect 14 0 20 0;
#X connect 15 0 68 0;
#X connect 16 0 69 0;
#X connect 17 0 16 0;
#X connect 18 0 25 0;
#X connect 19 0 22 0;
#X connect 20 0 19 0;
#X connect 21 0 20 1;
#X connect 22 0 11 0;
#X connect 23 0 8 0;
#X connect 24 0 5 0;
#X connect 26 0 2 0;
#X connect 28 0 27 0;
#X connect 29 0 30 0;
#X connect 30 0 41 0;
#X connect 30 0 50 0;
#X connect 30 1 49 0;
#X connect 31 0 33 0;
#X connect 32 0 48 0;
#X connect 33 0 48 1;
#X connect 34 0 31 0;
#X connect 35 0 34 0;
#X connect 37 0 57 0;
#X connect 41 0 42 0;
#X connect 42 0 68 0;
#X connect 43 0 51 0;
#X connect 46 0 37 0;
#X connect 47 0 54 0;
#X connect 48 0 36 0;
#X connect 48 0 49 0;
#X connect 49 0 43 0;
#X connect 49 0 47 0;
#X connect 50 0 56 0;
#X connect 51 0 71 0;
#X connect 53 0 29 0;
#X connect 58 0 68 0;
#X connect 59 0 68 1;
#X connect 60 0 21 0;
#X connect 62 0 42 0;
#X connect 63 0 32 0;
#X connect 65 0 9 0;
#X connect 67 0 6 0;
#X connect 68 0 7 0;
#X connect 68 0 17 0;
#X connect 70 0 1 0;
#X connect 71 0 55 0;
#X connect 72 0 76 0;
#X connect 73 0 28 0;
#X connect 75 0 73 0;
#X connect 76 0 3 0;
#X connect 76 0 66 0;
#X restore 601 483 pd trigger_samples_for_velocity_of_76-99;
#X obj 788 534 bng 15 250 50 0 empty empty empty 17 7 0 10 -262144
-1 -1;
#X text 685 550 carga sample;
#X obj 666 549 bng 15 250 50 0 empty empty empty 17 7 0 10 -262144
-1 -1;
#X text 785 551 triggea sample;
#X text 517 354 cambio de sample;
#X text 619 461 cambio de sample;
#N canvas 833 110 839 668 trigger_samples_for_velocity_of_0-75 0;
#N canvas 0 22 450 300 (subpatch) 0;
#X array sampler.A 25660 float 2;
#X coords 0 1 25660 -1 600 100 1 0 0;
#X restore 316 68 graph;
#X obj 319 34 hsl 600 15 0 1 0 0 empty empty empty -2 -8 0 10 -262144
-1 -1 0 1;
#X obj 319 797 r~ \$0-phasor;
#X obj 316 10 r \$0-posicion;
#X obj -99 30 bng 15 250 50 0 empty empty empty 17 7 0 10 -262144 -1
-1;
#X obj -99 115 soundfiler;
#X obj -99 48 openpanel;
#X floatatom -98 311 10 0 0 0 - - -;
#X floatatom -83 810 12 0 0 0 - - -;
#X obj -98 836 *~;
#X obj -17 240 samplerate~;
#X floatatom -98 261 15 0 0 0 - - -;
#X floatatom -99 143 12 0 0 0 - - -;
#X obj -98 966 s~ \$0-phasor;
#X obj -99 686 phasor~;
#X obj -99 167 s \$0-cantidad-de-muestras;
#X obj -98 196 r \$0-cantidad-de-muestras;
#X obj -83 786 r \$0-cantidad-de-muestras;
#X obj -98 585 *;
#X floatatom -83 562 10 0 0 0 - - -;
#X floatatom -17 261 10 0 0 0 - - -;
#X floatatom -98 387 10 0 0 0 - - -;
#X floatatom -98 609 10 0 0 0 - - -;
#X obj -23 734 nbx 5 14 -1e+37 1e+37 0 0 empty empty empty 0 -8 0 10
-262144 -1 -1 0 256;
#X obj -23 709 unsig~ 1;
#X obj -83 869 unsig~ 1;
#X msg -98 487 \$1 \$2;
#X obj -98 463 pack f f;
#X floatatom -53 436 10 0 0 0 - - -;
#X obj -53 412 r \$0-frecuencia-de-lectura-interpolacion;
#X obj -98 511 line;
#X obj -23 756 s \$0-posicion;
#X obj -59 633 r \$0-phasor-fase;
#X floatatom -59 657 10 0 0 0 - - -;
#X obj -17 219 loadbang;
#X obj -98 286 expr $f2 / $f1;
#X obj -33 332 s \$0-frecuencia-de-lectura-sin-transposicion;
#X obj 5 516 r \$0-frecuencia-de-lectura-sin-transposicion;
#X floatatom -83 892 12 0 0 0 - - -;
#X obj -99 6 inlet;
#X obj 319 917 outlet~;
#X obj 320 886 *~ 1;
#X obj -68 947 print;
#X obj 348 461 bng 15 250 50 0 empty empty empty 17 7 0 10 -262144
-1 -1;
#X obj 349 486 t b b;
#X obj 596 471 r \$0-cantidad-de-muestras;
#X obj 697 539 samplerate~;
#X floatatom 595 563 15 0 0 0 - - -;
#X floatatom 697 560 10 0 0 0 - - -;
#X obj 697 518 loadbang;
#X obj 696 492 bng 15 250 50 0 empty empty empty 17 7 0 10 -262144
-1 -1;
#X floatatom 612 619 10 0 0 0 - - -;
#X msg 350 626 0;
#X text 77 592 comment;
#X text 377 626 parar;
#X text 395 547 reproducir;
#X obj 351 550 bng 15 250 50 0 empty empty empty 17 7 0 10 -262144
-1 -1;
#X floatatom -8 572 5 0 0 0 - - -;
#X obj 540 665 bng 15 250 50 0 empty empty empty 17 7 0 10 -262144
-1 -1;
#X text 369 458 impluso de entrada;
#X text 786 596 cuenta para stop antes de repetir sample como loop
;
#X obj 350 594 loadbang;
#X msg 562 663 0;
#X obj 62 632 r pararsample;
#X obj 149 633 r retrigger;
#X obj 561 690 s pararsample;
#X obj 350 664 s pararsample;
#X obj 595 596 expr (($f1 / $f2) * 1000) - 0.1;
#X obj -24 117 bng 15 250 50 0 empty empty empty 17 7 0 10 -262144
-1 -1;
#X obj 540 639 delay 6000;
#X obj 441 663 s retrigger;
#X msg 440 626 0;
#X obj 540 715 delay 10;
#X obj 540 776 s retrigger;
#X text -7 37 carga de sample;
#X obj 347 317 inlet;
#X msg 549 748 0;
#X obj -38 58 loadbang;
#X msg -99 83 read -resize aguila/0.wav sampler.A;
#X obj 319 822 tabread4~ sampler.A;
#X connect 2 0 79 0;
#X connect 3 0 1 0;
#X connect 4 0 6 0;
#X connect 5 0 12 0;
#X connect 6 0 78 0;
#X connect 7 0 21 0;
#X connect 7 0 19 0;
#X connect 7 0 36 0;
#X connect 8 0 9 1;
#X connect 9 0 13 0;
#X connect 9 0 25 0;
#X connect 10 0 20 0;
#X connect 11 0 35 0;
#X connect 12 0 15 0;
#X connect 14 0 9 0;
#X connect 14 0 24 0;
#X connect 16 0 11 0;
#X connect 17 0 8 0;
#X connect 18 0 22 0;
#X connect 19 0 18 1;
#X connect 20 0 35 1;
#X connect 21 0 27 0;
#X connect 22 0 14 0;
#X connect 23 0 31 0;
#X connect 24 0 23 0;
#X connect 25 0 38 0;
#X connect 26 0 30 0;
#X connect 27 0 26 0;
#X connect 28 0 27 1;
#X connect 29 0 28 0;
#X connect 30 0 18 0;
#X connect 32 0 33 0;
#X connect 33 0 14 1;
#X connect 34 0 10 0;
#X connect 35 0 7 0;
#X connect 37 0 57 0;
#X connect 39 0 4 0;
#X connect 41 0 40 0;
#X connect 43 0 44 0;
#X connect 44 0 56 0;
#X connect 44 0 71 0;
#X connect 44 1 69 0;
#X connect 45 0 47 0;
#X connect 46 0 48 0;
#X connect 47 0 67 0;
#X connect 48 0 67 1;
#X connect 49 0 46 0;
#X connect 50 0 49 0;
#X connect 52 0 66 0;
#X connect 56 0 57 0;
#X connect 57 0 14 0;
#X connect 58 0 72 0;
#X connect 61 0 52 0;
#X connect 62 0 65 0;
#X connect 63 0 14 0;
#X connect 64 0 14 1;
#X connect 67 0 51 0;
#X connect 67 0 69 0;
#X connect 68 0 12 0;
#X connect 69 0 58 0;
#X connect 69 0 62 0;
#X connect 71 0 70 0;
#X connect 72 0 76 0;
#X connect 75 0 43 0;
#X connect 76 0 73 0;
#X connect 77 0 78 0;
#X connect 78 0 5 0;
#X connect 79 0 41 0;
#X restore -57 509 pd trigger_samples_for_velocity_of_0-75;
#X obj 957 200 moses 100;
#X obj 957 258 moses 75;
#X msg 1023 125 127;
#X msg 1023 166 60;
#X msg 1023 145 85;
#X obj 925 145 stripnote;
#X obj 963 54 bng 15 250 50 0 empty empty empty 17 7 0 10 -262144 -1
-1;
#X obj 1200 325 bng 15 250 50 0 empty empty empty 17 7 0 10 -262144
-1 -1;
#N canvas 352 73 1440 804 trigger_samples_for_velocity_of_100-127 0
;
#N canvas 0 22 450 300 (subpatch) 0;
#X array sampler.C3 31238 float 2;
#X coords 0 1 31238 -1 600 100 1 0 0;
#X restore 325 77 graph;
#X obj 329 44 hsl 600 15 0 1 0 0 empty empty empty -2 -8 0 10 -262144
-1 -1 0 1;
#X obj -89 40 bng 15 250 50 0 empty empty empty 17 7 0 10 -262144 -1
-1;
#X obj -89 125 soundfiler;
#X obj -88 65 openpanel;
#X floatatom -88 321 10 0 0 0 - - -;
#X floatatom -73 820 12 0 0 0 - - -;
#X obj -88 846 *~;
#X obj 76 245 samplerate~;
#X floatatom -88 271 15 0 0 0 - - -;
#X floatatom -89 152 12 0 0 0 - - -;
#X obj -88 595 *;
#X floatatom -73 572 10 0 0 0 - - -;
#X floatatom 78 273 10 0 0 0 - - -;
#X floatatom -88 397 10 0 0 0 - - -;
#X floatatom -88 619 10 0 0 0 - - -;
#X obj -13 744 nbx 5 14 -1e+37 1e+37 0 0 empty empty empty 0 -8 0 10
-262144 -1 -1 0 256;
#X obj -13 719 unsig~ 1;
#X obj -73 879 unsig~ 1;
#X msg -88 497 \$1 \$2;
#X obj -88 473 pack f f;
#X floatatom -43 446 10 0 0 0 - - -;
#X obj -88 521 line;
#X obj 76 224 loadbang;
#X obj -88 296 expr $f2 / $f1;
#X floatatom -73 902 12 0 0 0 - - -;
#X obj -89 16 inlet;
#X obj 329 927 outlet~;
#X obj 330 896 *~ 1;
#X obj 358 471 bng 15 250 50 0 empty empty empty 17 7 0 10 -262144
-1 -1;
#X obj 359 496 t b b;
#X obj 707 549 samplerate~;
#X floatatom 605 573 15 0 0 0 - - -;
#X floatatom 707 570 10 0 0 0 - - -;
#X obj 707 528 loadbang;
#X obj 706 502 bng 15 250 50 0 empty empty empty 17 7 0 10 -262144
-1 -1;
#X floatatom 622 629 10 0 0 0 - - -;
#X msg 360 636 0;
#X text 87 602 comment;
#X text 387 636 parar;
#X text 405 557 reproducir;
#X obj 361 560 bng 15 250 50 0 empty empty empty 17 7 0 10 -262144
-1 -1;
#X floatatom 2 582 5 0 0 0 - - -;
#X obj 550 675 bng 15 250 50 0 empty empty empty 17 7 0 10 -262144
-1 -1;
#X text 379 468 impluso de entrada;
#X text 796 606 cuenta para stop antes de repetir sample como loop
;
#X obj 360 604 loadbang;
#X msg 572 673 0;
#X obj 550 649 delay 6000;
#X msg 450 636 0;
#X obj 550 725 delay 10;
#X text 60 30 carga de sample;
#X obj 357 327 inlet;
#X obj 17 114 print;
#X obj -89 696 phasor~ 0;
#X msg 549 748 0;
#X obj -89 177 s \$0-cantidad-de-muestras3;
#X obj -88 206 r \$0-cantidad-de-muestras3;
#X obj -23 342 s \$0-frecuencia-de-lectura-sin-transposicion3;
#X obj -43 422 r \$0-frecuencia-de-lectura-interpolacion3;
#X obj 15 527 r \$0-frecuencia-de-lectura-sin-transposicion3;
#X obj 72 642 r pararsample3;
#X obj 168 643 r retrigger3;
#X obj -14 766 s \$0-posicion3;
#X obj -73 796 r \$0-cantidad-de-muestras3;
#X obj 548 780 s retrigger3;
#X obj 571 700 s pararsample3;
#X obj 360 673 s pararsample3;
#X obj 451 673 s retrigger3;
#X obj 606 482 r \$0-cantidad-de-muestras3;
#X obj 326 20 r \$0-posicion3;
#X obj 605 606 expr (($f1 / $f2) * 1000) - 0.1;
#X obj 583 541 bng 15 250 50 0 empty empty empty 17 7 0 10 -262144
-1 -1;
#X obj 96 200 bng 15 250 50 0 empty empty empty 17 7 0 10 -262144 -1
-1;
#X obj -19 66 loadbang;
#X obj 329 832 tabread4~ sampler.C3;
#X msg -89 88 read -resize malinalco/3.wav sampler.C3;
#X obj -88 976 s~ \$0-phasor9;
#X obj 329 807 r~ \$0-phasor9;
#X connect 2 0 4 0;
#X connect 3 0 10 0;
#X connect 4 0 76 0;
#X connect 5 0 14 0;
#X connect 5 0 12 0;
#X connect 5 0 58 0;
#X connect 6 0 7 1;
#X connect 7 0 18 0;
#X connect 7 0 77 0;
#X connect 8 0 13 0;
#X connect 9 0 24 0;
#X connect 10 0 56 0;
#X connect 11 0 15 0;
#X connect 12 0 11 1;
#X connect 13 0 24 1;
#X connect 14 0 20 0;
#X connect 15 0 54 0;
#X connect 16 0 63 0;
#X connect 17 0 16 0;
#X connect 18 0 25 0;
#X connect 19 0 22 0;
#X connect 20 0 19 0;
#X connect 21 0 20 1;
#X connect 22 0 11 0;
#X connect 23 0 8 0;
#X connect 24 0 5 0;
#X connect 26 0 2 0;
#X connect 28 0 27 0;
#X connect 29 0 30 0;
#X connect 30 0 41 0;
#X connect 30 0 49 0;
#X connect 30 1 48 0;
#X connect 31 0 33 0;
#X connect 32 0 71 0;
#X connect 33 0 71 1;
#X connect 34 0 31 0;
#X connect 35 0 34 0;
#X connect 37 0 67 0;
#X connect 41 0 42 0;
#X connect 42 0 54 0;
#X connect 43 0 50 0;
#X connect 46 0 37 0;
#X connect 47 0 66 0;
#X connect 48 0 43 0;
#X connect 48 0 47 0;
#X connect 49 0 68 0;
#X connect 50 0 55 0;
#X connect 52 0 29 0;
#X connect 54 0 7 0;
#X connect 54 0 17 0;
#X connect 55 0 65 0;
#X connect 57 0 9 0;
#X connect 59 0 21 0;
#X connect 60 0 42 0;
#X connect 61 0 54 0;
#X connect 62 0 54 1;
#X connect 64 0 6 0;
#X connect 69 0 32 0;
#X connect 70 0 1 0;
#X connect 71 0 36 0;
#X connect 71 0 48 0;
#X connect 72 0 32 0;
#X connect 73 0 23 0;
#X connect 74 0 76 0;
#X connect 75 0 28 0;
#X connect 76 0 3 0;
#X connect 76 0 53 0;
#X connect 78 0 75 0;
#X restore 1146 567 pd trigger_samples_for_velocity_of_100-127;
#N canvas 806 84 839 665 trigger_samples_for_velocity_of_0-75 0;
#N canvas 0 22 450 300 (subpatch) 0;
#X array sampler.C1 19641 float 2;
#X coords 0 1 19641 -1 600 100 1 0 0;
#X restore 316 68 graph;
#X obj 319 34 hsl 600 15 0 1 0 0 empty empty empty -2 -8 0 10 -262144
-1 -1 0 1;
#X obj 316 10 r \$0-posicion;
#X obj -95 26 bng 15 250 50 0 empty empty empty 17 7 0 10 -262144 -1
-1;
#X obj -99 115 soundfiler;
#X obj -99 48 openpanel;
#X floatatom -98 311 10 0 0 0 - - -;
#X floatatom -83 810 12 0 0 0 - - -;
#X obj -98 836 *~;
#X obj -17 240 samplerate~;
#X floatatom -98 261 15 0 0 0 - - -;
#X floatatom -99 142 12 0 0 0 - - -;
#X obj -99 686 phasor~;
#X obj -99 167 s \$0-cantidad-de-muestras;
#X obj -98 196 r \$0-cantidad-de-muestras;
#X obj -83 786 r \$0-cantidad-de-muestras;
#X obj -98 585 *;
#X floatatom -83 562 10 0 0 0 - - -;
#X floatatom -17 261 10 0 0 0 - - -;
#X floatatom -98 387 10 0 0 0 - - -;
#X floatatom -98 609 10 0 0 0 - - -;
#X obj -23 734 nbx 5 14 -1e+37 1e+37 0 0 empty empty empty 0 -8 0 10
-262144 -1 -1 0 256;
#X obj -23 709 unsig~ 1;
#X obj -83 869 unsig~ 1;
#X msg -98 487 \$1 \$2;
#X obj -98 463 pack f f;
#X floatatom -53 436 10 0 0 0 - - -;
#X obj -53 412 r \$0-frecuencia-de-lectura-interpolacion;
#X obj -98 511 line;
#X obj -23 756 s \$0-posicion;
#X obj -59 633 r \$0-phasor-fase;
#X floatatom -59 657 10 0 0 0 - - -;
#X obj -17 219 loadbang;
#X obj -98 286 expr $f2 / $f1;
#X obj -33 332 s \$0-frecuencia-de-lectura-sin-transposicion;
#X obj 5 516 r \$0-frecuencia-de-lectura-sin-transposicion;
#X floatatom -83 892 12 0 0 0 - - -;
#X obj -99 6 inlet;
#X obj 319 917 outlet~;
#X obj 320 886 *~ 1;
#X obj -68 947 print;
#X obj 348 461 bng 15 250 50 0 empty empty empty 17 7 0 10 -262144
-1 -1;
#X obj 349 486 t b b;
#X obj 596 471 r \$0-cantidad-de-muestras;
#X obj 697 539 samplerate~;
#X floatatom 595 563 15 0 0 0 - - -;
#X floatatom 697 560 10 0 0 0 - - -;
#X obj 697 518 loadbang;
#X obj 696 492 bng 15 250 50 0 empty empty empty 17 7 0 10 -262144
-1 -1;
#X floatatom 612 619 10 0 0 0 - - -;
#X msg 350 626 0;
#X text 77 592 comment;
#X text 377 626 parar;
#X text 395 547 reproducir;
#X obj 351 550 bng 15 250 50 0 empty empty empty 17 7 0 10 -262144
-1 -1;
#X floatatom -8 572 5 0 0 0 - - -;
#X obj 540 665 bng 15 250 50 0 empty empty empty 17 7 0 10 -262144
-1 -1;
#X text 369 458 impluso de entrada;
#X text 786 596 cuenta para stop antes de repetir sample como loop
;
#X obj 350 594 loadbang;
#X msg 562 663 0;
#X obj 62 632 r pararsample;
#X obj 149 633 r retrigger;
#X obj 561 690 s pararsample;
#X obj 350 664 s pararsample;
#X obj 595 596 expr (($f1 / $f2) * 1000) - 0.1;
#X obj -24 117 bng 15 250 50 0 empty empty empty 17 7 0 10 -262144
-1 -1;
#X obj 540 639 delay 6000;
#X obj 441 663 s retrigger;
#X msg 440 626 0;
#X obj 540 715 delay 10;
#X obj 540 776 s retrigger;
#X text -7 37 carga de sample;
#X obj 347 317 inlet;
#X msg 549 748 0;
#X obj -38 58 loadbang;
#X obj 319 797 r~ \$0-phasor7;
#X obj 319 822 tabread4~ sampler.C1;
#X msg -99 83 read -resize malinalco/0.wav sampler.C1;
#X obj -96 923 s~ \$0-phasor7;
#X connect 2 0 1 0;
#X connect 3 0 5 0;
#X connect 4 0 11 0;
#X connect 5 0 78 0;
#X connect 6 0 19 0;
#X connect 6 0 17 0;
#X connect 6 0 34 0;
#X connect 7 0 8 1;
#X connect 8 0 23 0;
#X connect 8 0 79 0;
#X connect 9 0 18 0;
#X connect 10 0 33 0;
#X connect 11 0 13 0;
#X connect 12 0 8 0;
#X connect 12 0 22 0;
#X connect 14 0 10 0;
#X connect 15 0 7 0;
#X connect 16 0 20 0;
#X connect 17 0 16 1;
#X connect 18 0 33 1;
#X connect 19 0 25 0;
#X connect 20 0 12 0;
#X connect 21 0 29 0;
#X connect 22 0 21 0;
#X connect 23 0 36 0;
#X connect 24 0 28 0;
#X connect 25 0 24 0;
#X connect 26 0 25 1;
#X connect 27 0 26 0;
#X connect 28 0 16 0;
#X connect 30 0 31 0;
#X connect 31 0 12 1;
#X connect 32 0 9 0;
#X connect 33 0 6 0;
#X connect 35 0 55 0;
#X connect 37 0 3 0;
#X connect 39 0 38 0;
#X connect 41 0 42 0;
#X connect 42 0 54 0;
#X connect 42 0 69 0;
#X connect 42 1 67 0;
#X connect 43 0 45 0;
#X connect 44 0 46 0;
#X connect 45 0 65 0;
#X connect 46 0 65 1;
#X connect 47 0 44 0;
#X connect 48 0 47 0;
#X connect 50 0 64 0;
#X connect 54 0 55 0;
#X connect 55 0 12 0;
#X connect 56 0 70 0;
#X connect 59 0 50 0;
#X connect 60 0 63 0;
#X connect 61 0 12 0;
#X connect 62 0 12 1;
#X connect 65 0 49 0;
#X connect 65 0 67 0;
#X connect 66 0 11 0;
#X connect 67 0 56 0;
#X connect 67 0 60 0;
#X connect 69 0 68 0;
#X connect 70 0 74 0;
#X connect 73 0 41 0;
#X connect 74 0 71 0;
#X connect 75 0 78 0;
#X connect 76 0 77 0;
#X connect 77 0 39 0;
#X connect 78 0 4 0;
#X restore 973 360 pd trigger_samples_for_velocity_of_0-75;
#X obj 1012 708 output~;
#X obj 972 339 bng 15 250 50 0 empty empty empty 17 7 0 10 -262144
-1 -1;
#X text 1091 339 triggea sample;
#X obj 1309 433 bng 15 250 50 0 empty empty empty 17 7 0 10 -262144
-1 -1;
#X obj 1070 430 bng 15 250 50 0 empty empty empty 17 7 0 10 -262144
-1 -1;
#X text 1193 446 triggea sample;
#N canvas 0 317 1920 1026 trigger_samples_for_velocity_of_76-99 0;
#N canvas 0 22 450 300 (subpatch) 0;
#X array sampler.C2 53315 float 2;
#X coords 0 1 53315 -1 600 100 1 0 0;
#X restore 316 68 graph;
#X obj 319 34 hsl 600 15 0 1 0 0 empty empty empty -2 -8 0 10 -262144
-1 -1 0 1;
#X obj -99 30 bng 15 250 50 0 empty empty empty 17 7 0 10 -262144 -1
-1;
#X obj -99 115 soundfiler;
#X obj -98 55 openpanel;
#X floatatom -98 311 10 0 0 0 - - -;
#X floatatom -83 810 12 0 0 0 - - -;
#X obj -98 836 *~;
#X obj -17 240 samplerate~;
#X floatatom -98 261 15 0 0 0 - - -;
#X floatatom -99 142 12 0 0 0 - - -;
#X obj -98 585 *;
#X floatatom -83 562 10 0 0 0 - - -;
#X floatatom -17 261 10 0 0 0 - - -;
#X floatatom -98 387 10 0 0 0 - - -;
#X floatatom -98 609 10 0 0 0 - - -;
#X obj -23 734 nbx 5 14 -1e+37 1e+37 0 0 empty empty empty 0 -8 0 10
-262144 -1 -1 0 256;
#X obj -23 709 unsig~ 1;
#X obj -83 869 unsig~ 1;
#X msg -98 487 \$1 \$2;
#X obj -98 463 pack f f;
#X floatatom -53 436 10 0 0 0 - - -;
#X obj -98 511 line;
#X obj -17 219 loadbang;
#X obj -98 286 expr $f2 / $f1;
#X floatatom -83 892 12 0 0 0 - - -;
#X obj -99 6 inlet;
#X obj 319 917 outlet~;
#X obj 320 886 *~ 1;
#X obj 348 461 bng 15 250 50 0 empty empty empty 17 7 0 10 -262144
-1 -1;
#X obj 349 486 t b b;
#X obj 697 539 samplerate~;
#X floatatom 595 563 15 0 0 0 - - -;
#X floatatom 697 560 10 0 0 0 - - -;
#X obj 697 518 loadbang;
#X obj 696 492 bng 15 250 50 0 empty empty empty 17 7 0 10 -262144
-1 -1;
#X floatatom 612 619 10 0 0 0 - - -;
#X msg 350 626 0;
#X text 77 592 comment;
#X text 377 626 parar;
#X text 395 547 reproducir;
#X obj 351 550 bng 15 250 50 0 empty empty empty 17 7 0 10 -262144
-1 -1;
#X floatatom -8 572 5 0 0 0 - - -;
#X obj 540 665 bng 15 250 50 0 empty empty empty 17 7 0 10 -262144
-1 -1;
#X text 369 458 impluso de entrada;
#X text 786 596 cuenta para stop antes de repetir sample como loop
;
#X obj 350 594 loadbang;
#X msg 562 663 0;
#X obj 595 596 expr (($f1 / $f2) * 1000) - 0.1;
#X obj 540 639 delay 6000;
#X msg 440 626 0;
#X obj 540 715 delay 10;
#X text 2 46 carga de sample;
#X obj 347 317 inlet;
#X obj 561 690 s pararsample2;
#X obj 538 770 s retrigger2;
#X obj 441 663 s retrigger2;
#X obj 350 663 s pararsample2;
#X obj 62 632 r pararsample2;
#X obj 158 633 r retrigger2;
#X obj -53 412 r \$0-frecuencia-de-lectura-interpolacion2;
#X obj -33 332 s \$0-frecuencia-de-lectura-sin-transposicion2;
#X obj 5 516 r \$0-frecuencia-de-lectura-sin-transposicion2;
#X obj 596 472 r \$0-cantidad-de-muestras2;
#X obj -99 167 s \$0-cantidad-de-muestras2;
#X obj -98 196 r \$0-cantidad-de-muestras2;
#X obj 7 104 print;
#X obj -83 786 r \$0-cantidad-de-muestras2;
#X obj -99 686 phasor~ 0;
#X obj -23 756 s \$0-posicion2;
#X obj 316 10 r \$0-posicion2;
#X msg 539 738 0;
#X obj -32 57 loadbang;
#X obj 319 822 tabread4~ sampler.C2;
#X msg -99 78 read -resize malinalco/2.wav sampler.C2;
#X obj -98 966 s~ \$0-phasor8;
#X obj 319 797 r~ \$0-phasor8;
#X connect 2 0 4 0;
#X connect 3 0 10 0;
#X connect 4 0 74 0;
#X connect 5 0 14 0;
#X connect 5 0 12 0;
#X connect 5 0 61 0;
#X connect 6 0 7 1;
#X connect 7 0 18 0;
#X connect 7 0 75 0;
#X connect 8 0 13 0;
#X connect 9 0 24 0;
#X connect 10 0 64 0;
#X connect 11 0 15 0;
#X connect 12 0 11 1;
#X connect 13 0 24 1;
#X connect 14 0 20 0;
#X connect 15 0 68 0;
#X connect 16 0 69 0;
#X connect 17 0 16 0;
#X connect 18 0 25 0;
#X connect 19 0 22 0;
#X connect 20 0 19 0;
#X connect 21 0 20 1;
#X connect 22 0 11 0;
#X connect 23 0 8 0;
#X connect 24 0 5 0;
#X connect 26 0 2 0;
#X connect 28 0 27 0;
#X connect 29 0 30 0;
#X connect 30 0 41 0;
#X connect 30 0 50 0;
#X connect 30 1 49 0;
#X connect 31 0 33 0;
#X connect 32 0 48 0;
#X connect 33 0 48 1;
#X connect 34 0 31 0;
#X connect 35 0 34 0;
#X connect 37 0 57 0;
#X connect 41 0 42 0;
#X connect 42 0 68 0;
#X connect 43 0 51 0;
#X connect 46 0 37 0;
#X connect 47 0 54 0;
#X connect 48 0 36 0;
#X connect 48 0 49 0;
#X connect 49 0 43 0;
#X connect 49 0 47 0;
#X connect 50 0 56 0;
#X connect 51 0 71 0;
#X connect 53 0 29 0;
#X connect 58 0 68 0;
#X connect 59 0 68 1;
#X connect 60 0 21 0;
#X connect 62 0 42 0;
#X connect 63 0 32 0;
#X connect 65 0 9 0;
#X connect 67 0 6 0;
#X connect 68 0 7 0;
#X connect 68 0 17 0;
#X connect 70 0 1 0;
#X connect 71 0 55 0;
#X connect 72 0 74 0;
#X connect 73 0 28 0;
#X connect 74 0 3 0;
#X connect 74 0 66 0;
#X connect 76 0 73 0;
#X restore 1075 467 pd trigger_samples_for_velocity_of_76-99;
#X obj 1386 538 bng 15 250 50 0 empty empty empty 17 7 0 10 -262144
-1 -1;
#X text 1159 534 carga sample;
#X obj 1140 533 bng 15 250 50 0 empty empty empty 17 7 0 10 -262144
-1 -1;
#X text 1259 535 triggea sample;
#X text 991 338 cambio de sample;
#X text 1093 445 cambio de sample;
#X obj 941 8 route 3;
#X msg 458 98 15;
#X msg 932 82 16;
#X obj 1406 196 moses 100;
#X obj 1406 254 moses 75;
#X msg 1472 121 127;
#X msg 1472 162 60;
#X msg 1472 141 85;
#X obj 1374 141 stripnote;
#X obj 1412 50 bng 15 250 50 0 empty empty empty 17 7 0 10 -262144
-1 -1;
#X obj 1649 321 bng 15 250 50 0 empty empty empty 17 7 0 10 -262144
-1 -1;
#N canvas 352 73 1440 804 trigger_samples_for_velocity_of_100-127 0
;
#N canvas 0 22 450 300 (subpatch) 0;
#X array sampler.C3 31238 float 2;
#X coords 0 1 31238 -1 600 100 1 0 0;
#X restore 325 77 graph;
#X obj 329 44 hsl 600 15 0 1 0 0 empty empty empty -2 -8 0 10 -262144
-1 -1 0 1;
#X obj -89 40 bng 15 250 50 0 empty empty empty 17 7 0 10 -262144 -1
-1;
#X obj -89 125 soundfiler;
#X obj -88 65 openpanel;
#X floatatom -88 321 10 0 0 0 - - -;
#X floatatom -73 820 12 0 0 0 - - -;
#X obj -88 846 *~;
#X obj 76 245 samplerate~;
#X floatatom -88 271 15 0 0 0 - - -;
#X floatatom -89 152 12 0 0 0 - - -;
#X obj -88 595 *;
#X floatatom -73 572 10 0 0 0 - - -;
#X floatatom 78 273 10 0 0 0 - - -;
#X floatatom -88 397 10 0 0 0 - - -;
#X floatatom -88 619 10 0 0 0 - - -;
#X obj -13 744 nbx 5 14 -1e+37 1e+37 0 0 empty empty empty 0 -8 0 10
-262144 -1 -1 0 256;
#X obj -13 719 unsig~ 1;
#X obj -73 879 unsig~ 1;
#X msg -88 497 \$1 \$2;
#X obj -88 473 pack f f;
#X floatatom -43 446 10 0 0 0 - - -;
#X obj -88 521 line;
#X obj 76 224 loadbang;
#X obj -88 296 expr $f2 / $f1;
#X floatatom -73 902 12 0 0 0 - - -;
#X obj -89 16 inlet;
#X obj 329 927 outlet~;
#X obj 330 896 *~ 1;
#X obj 358 471 bng 15 250 50 0 empty empty empty 17 7 0 10 -262144
-1 -1;
#X obj 359 496 t b b;
#X obj 707 549 samplerate~;
#X floatatom 605 573 15 0 0 0 - - -;
#X floatatom 707 570 10 0 0 0 - - -;
#X obj 707 528 loadbang;
#X obj 706 502 bng 15 250 50 0 empty empty empty 17 7 0 10 -262144
-1 -1;
#X floatatom 622 629 10 0 0 0 - - -;
#X msg 360 636 0;
#X text 87 602 comment;
#X text 387 636 parar;
#X text 405 557 reproducir;
#X obj 361 560 bng 15 250 50 0 empty empty empty 17 7 0 10 -262144
-1 -1;
#X floatatom 2 582 5 0 0 0 - - -;
#X obj 550 675 bng 15 250 50 0 empty empty empty 17 7 0 10 -262144
-1 -1;
#X text 379 468 impluso de entrada;
#X text 796 606 cuenta para stop antes de repetir sample como loop
;
#X obj 360 604 loadbang;
#X msg 572 673 0;
#X obj 550 649 delay 6000;
#X msg 450 636 0;
#X obj 550 725 delay 10;
#X text 60 30 carga de sample;
#X obj 357 327 inlet;
#X obj 17 114 print;
#X obj -89 696 phasor~ 0;
#X msg 549 748 0;
#X obj -89 177 s \$0-cantidad-de-muestras3;
#X obj -88 206 r \$0-cantidad-de-muestras3;
#X obj -23 342 s \$0-frecuencia-de-lectura-sin-transposicion3;
#X obj -43 422 r \$0-frecuencia-de-lectura-interpolacion3;
#X obj 15 527 r \$0-frecuencia-de-lectura-sin-transposicion3;
#X obj 72 642 r pararsample3;
#X obj 168 643 r retrigger3;
#X obj -14 766 s \$0-posicion3;
#X obj -73 796 r \$0-cantidad-de-muestras3;
#X obj 548 780 s retrigger3;
#X obj 571 700 s pararsample3;
#X obj 360 673 s pararsample3;
#X obj 451 673 s retrigger3;
#X obj 606 482 r \$0-cantidad-de-muestras3;
#X obj 326 20 r \$0-posicion3;
#X obj 605 606 expr (($f1 / $f2) * 1000) - 0.1;
#X obj 583 541 bng 15 250 50 0 empty empty empty 17 7 0 10 -262144
-1 -1;
#X obj 96 200 bng 15 250 50 0 empty empty empty 17 7 0 10 -262144 -1
-1;
#X obj -19 66 loadbang;
#X obj 329 832 tabread4~ sampler.C3;
#X msg -89 88 read -resize malinalco/3.wav sampler.C3;
#X obj -88 976 s~ \$0-phasor9;
#X obj 329 807 r~ \$0-phasor9;
#X connect 2 0 4 0;
#X connect 3 0 10 0;
#X connect 4 0 76 0;
#X connect 5 0 14 0;
#X connect 5 0 12 0;
#X connect 5 0 58 0;
#X connect 6 0 7 1;
#X connect 7 0 18 0;
#X connect 7 0 77 0;
#X connect 8 0 13 0;
#X connect 9 0 24 0;
#X connect 10 0 56 0;
#X connect 11 0 15 0;
#X connect 12 0 11 1;
#X connect 13 0 24 1;
#X connect 14 0 20 0;
#X connect 15 0 54 0;
#X connect 16 0 63 0;
#X connect 17 0 16 0;
#X connect 18 0 25 0;
#X connect 19 0 22 0;
#X connect 20 0 19 0;
#X connect 21 0 20 1;
#X connect 22 0 11 0;
#X connect 23 0 8 0;
#X connect 24 0 5 0;
#X connect 26 0 2 0;
#X connect 28 0 27 0;
#X connect 29 0 30 0;
#X connect 30 0 41 0;
#X connect 30 0 49 0;
#X connect 30 1 48 0;
#X connect 31 0 33 0;
#X connect 32 0 71 0;
#X connect 33 0 71 1;
#X connect 34 0 31 0;
#X connect 35 0 34 0;
#X connect 37 0 67 0;
#X connect 41 0 42 0;
#X connect 42 0 54 0;
#X connect 43 0 50 0;
#X connect 46 0 37 0;
#X connect 47 0 66 0;
#X connect 48 0 43 0;
#X connect 48 0 47 0;
#X connect 49 0 68 0;
#X connect 50 0 55 0;
#X connect 52 0 29 0;
#X connect 54 0 7 0;
#X connect 54 0 17 0;
#X connect 55 0 65 0;
#X connect 57 0 9 0;
#X connect 59 0 21 0;
#X connect 60 0 42 0;
#X connect 61 0 54 0;
#X connect 62 0 54 1;
#X connect 64 0 6 0;
#X connect 69 0 32 0;
#X connect 70 0 1 0;
#X connect 71 0 36 0;
#X connect 71 0 48 0;
#X connect 72 0 32 0;
#X connect 73 0 23 0;
#X connect 74 0 76 0;
#X connect 75 0 28 0;
#X connect 76 0 3 0;
#X connect 76 0 53 0;
#X connect 78 0 75 0;
#X restore 1595 563 pd trigger_samples_for_velocity_of_100-127;
#N canvas 806 84 839 665 trigger_samples_for_velocity_of_0-75 0;
#N canvas 0 22 450 300 (subpatch) 0;
#X array sampler.C1 19641 float 2;
#X coords 0 1 19641 -1 600 100 1 0 0;
#X restore 316 68 graph;
#X obj 319 34 hsl 600 15 0 1 0 0 empty empty empty -2 -8 0 10 -262144
-1 -1 0 1;
#X obj 316 10 r \$0-posicion;
#X obj -95 26 bng 15 250 50 0 empty empty empty 17 7 0 10 -262144 -1
-1;
#X obj -99 115 soundfiler;
#X obj -99 48 openpanel;
#X floatatom -98 311 10 0 0 0 - - -;
#X floatatom -83 810 12 0 0 0 - - -;
#X obj -98 836 *~;
#X obj -17 240 samplerate~;
#X floatatom -98 261 15 0 0 0 - - -;
#X floatatom -99 142 12 0 0 0 - - -;
#X obj -99 686 phasor~;
#X obj -99 167 s \$0-cantidad-de-muestras;
#X obj -98 196 r \$0-cantidad-de-muestras;
#X obj -83 786 r \$0-cantidad-de-muestras;
#X obj -98 585 *;
#X floatatom -83 562 10 0 0 0 - - -;
#X floatatom -17 261 10 0 0 0 - - -;
#X floatatom -98 387 10 0 0 0 - - -;
#X floatatom -98 609 10 0 0 0 - - -;
#X obj -23 734 nbx 5 14 -1e+37 1e+37 0 0 empty empty empty 0 -8 0 10
-262144 -1 -1 0 256;
#X obj -23 709 unsig~ 1;
#X obj -83 869 unsig~ 1;
#X msg -98 487 \$1 \$2;
#X obj -98 463 pack f f;
#X floatatom -53 436 10 0 0 0 - - -;
#X obj -53 412 r \$0-frecuencia-de-lectura-interpolacion;
#X obj -98 511 line;
#X obj -23 756 s \$0-posicion;
#X obj -59 633 r \$0-phasor-fase;
#X floatatom -59 657 10 0 0 0 - - -;
#X obj -17 219 loadbang;
#X obj -98 286 expr $f2 / $f1;
#X obj -33 332 s \$0-frecuencia-de-lectura-sin-transposicion;
#X obj 5 516 r \$0-frecuencia-de-lectura-sin-transposicion;
#X floatatom -83 892 12 0 0 0 - - -;
#X obj -99 6 inlet;
#X obj 319 917 outlet~;
#X obj 320 886 *~ 1;
#X obj -68 947 print;
#X obj 348 461 bng 15 250 50 0 empty empty empty 17 7 0 10 -262144
-1 -1;
#X obj 349 486 t b b;
#X obj 596 471 r \$0-cantidad-de-muestras;
#X obj 697 539 samplerate~;
#X floatatom 595 563 15 0 0 0 - - -;
#X floatatom 697 560 10 0 0 0 - - -;
#X obj 697 518 loadbang;
#X obj 696 492 bng 15 250 50 0 empty empty empty 17 7 0 10 -262144
-1 -1;
#X floatatom 612 619 10 0 0 0 - - -;
#X msg 350 626 0;
#X text 77 592 comment;
#X text 377 626 parar;
#X text 395 547 reproducir;
#X obj 351 550 bng 15 250 50 0 empty empty empty 17 7 0 10 -262144
-1 -1;
#X floatatom -8 572 5 0 0 0 - - -;
#X obj 540 665 bng 15 250 50 0 empty empty empty 17 7 0 10 -262144
-1 -1;
#X text 369 458 impluso de entrada;
#X text 786 596 cuenta para stop antes de repetir sample como loop
;
#X obj 350 594 loadbang;
#X msg 562 663 0;
#X obj 62 632 r pararsample;
#X obj 149 633 r retrigger;
#X obj 561 690 s pararsample;
#X obj 350 664 s pararsample;
#X obj 595 596 expr (($f1 / $f2) * 1000) - 0.1;
#X obj -24 117 bng 15 250 50 0 empty empty empty 17 7 0 10 -262144
-1 -1;
#X obj 540 639 delay 6000;
#X obj 441 663 s retrigger;
#X msg 440 626 0;
#X obj 540 715 delay 10;
#X obj 540 776 s retrigger;
#X text -7 37 carga de sample;
#X obj 347 317 inlet;
#X msg 549 748 0;
#X obj -38 58 loadbang;
#X obj 319 797 r~ \$0-phasor7;
#X obj 319 822 tabread4~ sampler.C1;
#X msg -99 83 read -resize malinalco/0.wav sampler.C1;
#X obj -96 923 s~ \$0-phasor7;
#X connect 2 0 1 0;
#X connect 3 0 5 0;
#X connect 4 0 11 0;
#X connect 5 0 78 0;
#X connect 6 0 19 0;
#X connect 6 0 17 0;
#X connect 6 0 34 0;
#X connect 7 0 8 1;
#X connect 8 0 23 0;
#X connect 8 0 79 0;
#X connect 9 0 18 0;
#X connect 10 0 33 0;
#X connect 11 0 13 0;
#X connect 12 0 8 0;
#X connect 12 0 22 0;
#X connect 14 0 10 0;
#X connect 15 0 7 0;
#X connect 16 0 20 0;
#X connect 17 0 16 1;
#X connect 18 0 33 1;
#X connect 19 0 25 0;
#X connect 20 0 12 0;
#X connect 21 0 29 0;
#X connect 22 0 21 0;
#X connect 23 0 36 0;
#X connect 24 0 28 0;
#X connect 25 0 24 0;
#X connect 26 0 25 1;
#X connect 27 0 26 0;
#X connect 28 0 16 0;
#X connect 30 0 31 0;
#X connect 31 0 12 1;
#X connect 32 0 9 0;
#X connect 33 0 6 0;
#X connect 35 0 55 0;
#X connect 37 0 3 0;
#X connect 39 0 38 0;
#X connect 41 0 42 0;
#X connect 42 0 54 0;
#X connect 42 0 69 0;
#X connect 42 1 67 0;
#X connect 43 0 45 0;
#X connect 44 0 46 0;
#X connect 45 0 65 0;
#X connect 46 0 65 1;
#X connect 47 0 44 0;
#X connect 48 0 47 0;
#X connect 50 0 64 0;
#X connect 54 0 55 0;
#X connect 55 0 12 0;
#X connect 56 0 70 0;
#X connect 59 0 50 0;
#X connect 60 0 63 0;
#X connect 61 0 12 0;
#X connect 62 0 12 1;
#X connect 65 0 49 0;
#X connect 65 0 67 0;
#X connect 66 0 11 0;
#X connect 67 0 56 0;
#X connect 67 0 60 0;
#X connect 69 0 68 0;
#X connect 70 0 74 0;
#X connect 73 0 41 0;
#X connect 74 0 71 0;
#X connect 75 0 78 0;
#X connect 76 0 77 0;
#X connect 77 0 39 0;
#X connect 78 0 4 0;
#X restore 1422 356 pd trigger_samples_for_velocity_of_0-75;
#X obj 1461 704 output~;
#X obj 1421 335 bng 15 250 50 0 empty empty empty 17 7 0 10 -262144
-1 -1;
#X text 1540 335 triggea sample;
#X obj 1758 429 bng 15 250 50 0 empty empty empty 17 7 0 10 -262144
-1 -1;
#X obj 1519 426 bng 15 250 50 0 empty empty empty 17 7 0 10 -262144
-1 -1;
#X text 1642 442 triggea sample;
#N canvas 0 38 1920 1026 trigger_samples_for_velocity_of_76-99 0;
#N canvas 0 22 450 300 (subpatch) 0;
#X array sampler.C2 77217 float 2;
#X coords 0 1 77217 -1 600 100 1 0 0;
#X restore 316 68 graph;
#X obj 319 34 hsl 600 15 0 1 0 0 empty empty empty -2 -8 0 10 -262144
-1 -1 0 1;
#X obj -99 30 bng 15 250 50 0 empty empty empty 17 7 0 10 -262144 -1
-1;
#X obj -99 115 soundfiler;
#X obj -98 55 openpanel;
#X floatatom -98 311 10 0 0 0 - - -;
#X floatatom -83 810 12 0 0 0 - - -;
#X obj -98 836 *~;
#X obj -17 240 samplerate~;
#X floatatom -98 261 15 0 0 0 - - -;
#X floatatom -99 142 12 0 0 0 - - -;
#X obj -98 585 *;
#X floatatom -83 562 10 0 0 0 - - -;
#X floatatom -17 261 10 0 0 0 - - -;
#X floatatom -98 387 10 0 0 0 - - -;
#X floatatom -98 609 10 0 0 0 - - -;
#X obj -23 734 nbx 5 14 -1e+37 1e+37 0 0 empty empty empty 0 -8 0 10
-262144 -1 -1 0 256;
#X obj -23 709 unsig~ 1;
#X obj -83 869 unsig~ 1;
#X msg -98 487 \$1 \$2;
#X obj -98 463 pack f f;
#X floatatom -53 436 10 0 0 0 - - -;
#X obj -98 511 line;
#X obj -17 219 loadbang;
#X obj -98 286 expr $f2 / $f1;
#X floatatom -83 892 12 0 0 0 - - -;
#X obj -99 6 inlet;
#X obj 319 917 outlet~;
#X obj 320 886 *~ 1;
#X obj 348 461 bng 15 250 50 0 empty empty empty 17 7 0 10 -262144
-1 -1;
#X obj 349 486 t b b;
#X obj 697 539 samplerate~;
#X floatatom 595 563 15 0 0 0 - - -;
#X floatatom 697 560 10 0 0 0 - - -;
#X obj 697 518 loadbang;
#X obj 696 492 bng 15 250 50 0 empty empty empty 17 7 0 10 -262144
-1 -1;
#X floatatom 612 619 10 0 0 0 - - -;
#X msg 350 626 0;
#X text 77 592 comment;
#X text 377 626 parar;
#X text 395 547 reproducir;
#X obj 351 550 bng 15 250 50 0 empty empty empty 17 7 0 10 -262144
-1 -1;
#X floatatom -8 572 5 0 0 0 - - -;
#X obj 540 665 bng 15 250 50 0 empty empty empty 17 7 0 10 -262144
-1 -1;
#X text 369 458 impluso de entrada;
#X text 786 596 cuenta para stop antes de repetir sample como loop
;
#X obj 350 594 loadbang;
#X msg 562 663 0;
#X obj 595 596 expr (($f1 / $f2) * 1000) - 0.1;
#X obj 540 639 delay 6000;
#X msg 440 626 0;
#X obj 540 715 delay 10;
#X text 2 46 carga de sample;
#X obj 347 317 inlet;
#X obj 561 690 s pararsample2;
#X obj 538 770 s retrigger2;
#X obj 441 663 s retrigger2;
#X obj 350 663 s pararsample2;
#X obj 62 632 r pararsample2;
#X obj 158 633 r retrigger2;
#X obj -53 412 r \$0-frecuencia-de-lectura-interpolacion2;
#X obj -33 332 s \$0-frecuencia-de-lectura-sin-transposicion2;
#X obj 5 516 r \$0-frecuencia-de-lectura-sin-transposicion2;
#X obj 596 472 r \$0-cantidad-de-muestras2;
#X obj -99 167 s \$0-cantidad-de-muestras2;
#X obj -98 196 r \$0-cantidad-de-muestras2;
#X obj 7 104 print;
#X obj -83 786 r \$0-cantidad-de-muestras2;
#X obj -99 686 phasor~ 0;
#X obj -23 756 s \$0-posicion2;
#X obj 316 10 r \$0-posicion2;
#X msg 539 738 0;
#X obj -32 57 loadbang;
#X obj 319 822 tabread4~ sampler.C2;
#X msg -99 78 read -resize malinalco/2.wav sampler.C2;
#X obj -98 966 s~ \$0-phasor8;
#X obj 319 797 r~ \$0-phasor8;
#X connect 2 0 4 0;
#X connect 3 0 10 0;
#X connect 4 0 74 0;
#X connect 5 0 14 0;
#X connect 5 0 12 0;
#X connect 5 0 61 0;
#X connect 6 0 7 1;
#X connect 7 0 18 0;
#X connect 7 0 75 0;
#X connect 8 0 13 0;
#X connect 9 0 24 0;
#X connect 10 0 64 0;
#X connect 11 0 15 0;
#X connect 12 0 11 1;
#X connect 13 0 24 1;
#X connect 14 0 20 0;
#X connect 15 0 68 0;
#X connect 16 0 69 0;
#X connect 17 0 16 0;
#X connect 18 0 25 0;
#X connect 19 0 22 0;
#X connect 20 0 19 0;
#X connect 21 0 20 1;
#X connect 22 0 11 0;
#X connect 23 0 8 0;
#X connect 24 0 5 0;
#X connect 26 0 2 0;
#X connect 28 0 27 0;
#X connect 29 0 30 0;
#X connect 30 0 41 0;
#X connect 30 0 50 0;
#X connect 30 1 49 0;
#X connect 31 0 33 0;
#X connect 32 0 48 0;
#X connect 33 0 48 1;
#X connect 34 0 31 0;
#X connect 35 0 34 0;
#X connect 37 0 57 0;
#X connect 41 0 42 0;
#X connect 42 0 68 0;
#X connect 43 0 51 0;
#X connect 46 0 37 0;
#X connect 47 0 54 0;
#X connect 48 0 36 0;
#X connect 48 0 49 0;
#X connect 49 0 43 0;
#X connect 49 0 47 0;
#X connect 50 0 56 0;
#X connect 51 0 71 0;
#X connect 53 0 29 0;
#X connect 58 0 68 0;
#X connect 59 0 68 1;
#X connect 60 0 21 0;
#X connect 62 0 42 0;
#X connect 63 0 32 0;
#X connect 65 0 9 0;
#X connect 67 0 6 0;
#X connect 68 0 7 0;
#X connect 68 0 17 0;
#X connect 70 0 1 0;
#X connect 71 0 55 0;
#X connect 72 0 74 0;
#X connect 73 0 28 0;
#X connect 74 0 3 0;
#X connect 74 0 66 0;
#X connect 76 0 73 0;
#X restore 1524 463 pd trigger_samples_for_velocity_of_76-99;
#X obj 1835 534 bng 15 250 50 0 empty empty empty 17 7 0 10 -262144
-1 -1;
#X text 1608 530 carga sample;
#X obj 1589 529 bng 15 250 50 0 empty empty empty 17 7 0 10 -262144
-1 -1;
#X text 1708 531 triggea sample;
#X text 1440 334 cambio de sample;
#X text 1542 441 cambio de sample;
#X msg 1381 78 16;
#X obj 1390 4 route 4;
#X obj -22 916 dac~;
#X obj -22 886 *~ 0.05;
#X obj 419 754 loadbang;
#X obj 117 766 hsl 128 20 0 1 0 1 empty empty pan_position 6 10 1 11
-262131 -1 -1 6500 0;
#X obj -23 797 linear_pan~;
#X obj 419 835 tgl 25 0 empty empty DSP 3 12 1 9 -24198 -1 -1 1 1;
#X msg 419 869 \; pd dsp \$1;
#X obj 36 887 *~ 0.05;
#X obj 114 714 loadbang;
#X msg 114 738 0.511811;
#X msg 58 739 set \$1;
#X text 184 721 modulo de paneo de cada tampor;
#X text 41 913 nuevo modulo dac para poder automatizar encendido;
#X text 434 906;
#X msg 37 37 1;
#X msg 419 783 1;
#X obj 419 807 delay 3000;
#X text 496 833 encendido del DSP una vez pasados 3s. de abierto el
patch para prevenir sonidos durante carga de samples;
#X msg 349 811 0;
#X obj 279 835 line 0 100;
#X msg 280 808 0.5 2000;
#X obj 281 784 bng 15 250 50 0 empty empty empty 17 7 0 10 -262144
-1 -1;
#X connect 0 0 1 0;
#X connect 0 1 20 0;
#X connect 1 0 4 0;
#X connect 1 1 16 0;
#X connect 2 0 0 0;
#X connect 3 0 0 0;
#X connect 4 0 50 1;
#X connect 5 0 0 0;
#X connect 6 0 106 0;
#X connect 7 1 0 0;
#X connect 8 0 9 0;
#X connect 9 0 12 0;
#X connect 9 0 26 0;
#X connect 9 0 74 0;
#X connect 10 0 7 0;
#X connect 12 0 10 0;
#X connect 12 0 11 0;
#X connect 12 0 7 1;
#X connect 14 0 50 0;
#X connect 16 0 19 1;
#X connect 17 0 19 0;
#X connect 19 0 106 0;
#X connect 20 0 6 1;
#X connect 22 0 6 0;
#X connect 26 0 32 1;
#X connect 26 0 75 0;
#X connect 26 0 33 0;
#X connect 27 0 28 0;
#X connect 27 1 44 0;
#X connect 28 0 34 0;
#X connect 28 1 40 0;
#X connect 29 0 27 0;
#X connect 30 0 27 0;
#X connect 31 0 27 0;
#X connect 32 1 27 0;
#X connect 34 0 36 1;
#X connect 35 0 37 0;
#X connect 35 0 37 1;
#X connect 36 0 37 0;
#X connect 36 0 37 1;
#X connect 38 0 36 0;
#X connect 40 0 43 1;
#X connect 41 0 43 0;
#X connect 43 0 37 0;
#X connect 43 0 37 1;
#X connect 44 0 35 1;
#X connect 46 0 35 0;
#X connect 50 0 106 0;
#X connect 51 0 52 0;
#X connect 51 1 68 0;
#X connect 52 0 58 0;
#X connect 52 1 64 0;
#X connect 53 0 51 0;
#X connect 54 0 51 0;
#X connect 55 0 51 0;
#X connect 56 1 51 0;
#X connect 58 0 60 1;
#X connect 59 0 61 0;
#X connect 59 0 61 1;
#X connect 60 0 61 0;
#X connect 60 0 61 1;
#X connect 62 0 60 0;
#X connect 64 0 67 1;
#X connect 65 0 67 0;
#X connect 67 0 61 0;
#X connect 67 0 61 1;
#X connect 68 0 59 1;
#X connect 70 0 59 0;
#X connect 74 0 56 1;
#X connect 74 0 76 0;
#X connect 74 0 57 0;
#X connect 75 0 32 0;
#X connect 76 0 56 0;
#X connect 77 0 78 0;
#X connect 77 1 94 0;
#X connect 78 0 84 0;
#X connect 78 1 90 0;
#X connect 79 0 77 0;
#X connect 80 0 77 0;
#X connect 81 0 77 0;
#X connect 82 1 77 0;
#X connect 84 0 86 1;
#X connect 85 0 87 0;
#X connect 85 0 87 1;
#X connect 86 0 87 0;
#X connect 86 0 87 1;
#X connect 88 0 86 0;
#X connect 90 0 93 1;
#X connect 91 0 93 0;
#X connect 93 0 87 0;
#X connect 93 0 87 1;
#X connect 94 0 85 1;
#X connect 96 0 85 0;
#X connect 100 0 82 0;
#X connect 101 0 82 1;
#X connect 101 0 100 0;
#X connect 101 0 83 0;
#X connect 103 0 102 0;
#X connect 104 0 117 0;
#X connect 105 0 106 1;
#X connect 105 0 112 0;
#X connect 106 0 103 0;
#X connect 106 0 109 0;
#X connect 107 0 108 0;
#X connect 109 0 102 1;
#X connect 110 0 111 0;
#X connect 111 0 105 0;
#X connect 112 0 111 0;
#X connect 117 0 118 0;
#X connect 118 0 107 0;
#X connect 118 0 123 0;
#X connect 120 0 121 0;
#X connect 121 0 109 1;
#X connect 121 0 103 1;
#X connect 122 0 121 0;
#X connect 123 0 122 0;
