#N canvas 330 23 986 694 10;
#X obj -41 211 moses 100;
#X obj -41 282 moses 75;
#X obj 4 308 bng 15 250 50 0 empty empty empty 17 7 0 10 -262144 -1
-1;
#X msg 25 136 127;
#X msg 25 177 60;
#X obj -41 327 bng 15 250 50 0 empty empty empty 17 7 0 10 -262144
-1 -1;
#X msg 25 156 85;
#N canvas 581 370 450 300 trigger_samples_for_velocity_of_100-127 0
;
#X obj 45 29 inlet;
#X restore 10 260 pd trigger_samples_for_velocity_of_100-127;
#X obj 10 238 bng 15 250 50 0 empty empty empty 17 7 0 10 -262144 -1
-1;
#N canvas 581 370 450 300 trigger_samples_for_velocity_of_75-100 0
;
#X obj 45 29 inlet;
#X restore 4 331 pd trigger_samples_for_velocity_of_75-100;
#N canvas 565 206 746 668 trigger_samples_for_velocity_of_0-75 0;
#X obj 66 18 inlet;
#X obj 277 28 bng 15 250 50 0 empty empty empty 17 7 0 10 -262144 -1
-1;
#X obj 276 57 openpanel;
#X obj 316 565 *~;
#X obj 356 562 *~;
#X obj 324 627 dac~ 1 2;
#X obj 457 464 slider 127 0 15;
#N canvas 0 22 450 278 (subpatch) 0;
#X array channelL 273273 float 2;
#X coords 0 1 273273 -1 200 140 1;
#X restore 624 149 graph;
#X obj 336 585 *~;
#N canvas 0 22 450 278 (subpatch) 0;
#X array channelR 273273 float 2;
#X coords 0 1 273273 -1 200 140 1 0 0;
#X restore 623 304 graph;
#X msg 276 82 read -resize \$1 channelL channelR;
#X floatatom 304 141 15 0 0 0 - - -;
#X obj 285 264 expr 44100 / $f1;
#X floatatom 328 293 12 0 0 0 - - -;
#X obj 292 373 phasor~;
#X obj 293 400 *~;
#X obj 352 373 r sampleSize;
#X obj 304 168 s sampleSize;
#X obj 325 433 tabread4~ channelL;
#X obj 323 472 tabread4~ channelR;
#X obj 276 107 soundfiler;
#X obj 509 386 metro 50;
#X obj 506 358 tgl 15 0 empty empty empty 17 7 0 10 -262144 -1 -1 0
1;
#X obj 510 416 snapshot~;
#X floatatom 511 450 12 0 0 0 - - -;
#X obj 511 489 /;
#X obj 556 473 r sampleSize;
#X floatatom 511 522 12 0 0 0 - - -;
#X obj 626 451 hsl 195 15 0 1 0 0 empty empty empty -2 -8 0 10 -262144
-1 -1 0 1;
#X obj 188 236 bng 15 250 50 0 empty empty empty 17 7 0 10 -262144
-1 -1;
#X obj 195 269 t b b;
#X msg 185 314 0;
#X msg 227 310 1;
#X msg 375 328 0;
#X msg 419 328 0.5;
#X text 310 21 cargar sample y comenzar;
#X obj 72 99 bng 15 250 50 0 empty empty empty 17 7 0 10 -262144 -1
-1;
#X text 98 148 play;
#X obj 82 274 bng 15 250 50 0 empty empty empty 17 7 0 10 -262144 -1
-1;
#X obj 83 246 delay 1000;
#X floatatom 117 208 15 0 0 0 - - -;
#X obj 106 180 expr (($f1 / 44100) * 1000)-1;
#X obj 113 274 delay 10;
#X obj 113 18 inlet;
#X obj 40 423 loadbang;
#X msg 41 459 0.5;
#X connect 0 0 36 0;
#X connect 1 0 2 0;
#X connect 2 0 10 0;
#X connect 3 0 5 0;
#X connect 4 0 5 1;
#X connect 6 0 4 1;
#X connect 6 0 3 1;
#X connect 10 0 20 0;
#X connect 11 0 17 0;
#X connect 11 0 41 0;
#X connect 12 0 13 0;
#X connect 12 0 14 0;
#X connect 14 0 15 0;
#X connect 15 0 18 0;
#X connect 15 0 19 0;
#X connect 15 0 23 0;
#X connect 16 0 15 1;
#X connect 18 0 3 0;
#X connect 19 0 4 0;
#X connect 20 0 11 0;
#X connect 20 0 12 0;
#X connect 21 0 23 0;
#X connect 22 0 21 0;
#X connect 23 0 24 0;
#X connect 24 0 25 0;
#X connect 25 0 27 0;
#X connect 26 0 25 1;
#X connect 27 0 28 0;
#X connect 29 0 30 0;
#X connect 30 0 33 0;
#X connect 30 1 31 0;
#X connect 31 0 14 0;
#X connect 32 0 14 0;
#X connect 33 0 14 1;
#X connect 34 0 14 1;
#X connect 36 0 12 0;
#X connect 36 0 11 0;
#X connect 36 0 39 0;
#X connect 38 0 31 0;
#X connect 39 0 38 0;
#X connect 39 0 42 0;
#X connect 40 0 39 1;
#X connect 41 0 40 0;
#X connect 42 0 33 0;
#X connect 43 0 1 0;
#X connect 44 0 45 0;
#X connect 45 0 6 0;
#X restore -37 396 pd trigger_samples_for_velocity_of_0-75;
#X obj -73 156 stripnote;
#X text -99 -53 comment;
#X obj -37 -107 midiin;
#X obj -39 -83 midiparse;
#X msg -66 93 14;
#X obj -35 65 bng 15 250 50 0 empty empty empty 17 7 0 10 -262144 -1
-1;
#X obj -47 27 route 1;
#X obj 193 373 bng 15 250 50 0 empty empty empty 17 7 0 10 -262144
-1 -1;
#X text 217 373 cargar sample;
#X connect 0 0 1 0;
#X connect 0 1 8 0;
#X connect 1 0 5 0;
#X connect 1 1 2 0;
#X connect 2 0 9 0;
#X connect 3 0 0 0;
#X connect 4 0 0 0;
#X connect 5 0 10 0;
#X connect 6 0 0 0;
#X connect 8 0 7 0;
#X connect 11 1 0 0;
#X connect 13 0 14 0;
#X connect 14 0 17 0;
#X connect 15 0 11 0;
#X connect 17 0 15 0;
#X connect 17 0 16 0;
#X connect 17 0 11 1;
#X connect 18 0 10 1;
