#N canvas 353 23 986 694 10;
#X obj -41 211 moses 100;
#X obj -41 282 moses 75;
#X msg 25 136 127;
#X msg 25 177 60;
#X obj 74 349 bng 15 250 50 0 empty empty empty 17 7 0 10 -262144 -1
-1;
#X msg 25 156 85;
#N canvas 0 23 1440 851 trigger_samples_for_velocity_of_100-127 0;
#N canvas 0 22 450 300 (subpatch) 0;
#X array sampler.L3 70671 float 2;
#X coords 0 1 70671 -1 600 100 1 0 0;
#X restore 326 78 graph;
#X obj 329 44 hsl 600 15 0 1 0 0 empty empty empty -2 -8 0 10 -262144
-1 -1 0 1;
#X obj -89 40 bng 15 250 50 0 empty empty empty 17 7 0 10 -262144 -1
-1;
#X obj -89 125 soundfiler;
#X obj -88 65 openpanel;
#X floatatom -88 321 10 0 0 0 - - -;
#X floatatom -73 820 12 0 0 0 - - -;
#X obj -88 846 *~;
#X obj 76 245 samplerate~;
#X floatatom -88 271 15 0 0 0 - - -;
#X floatatom -89 152 12 0 0 0 - - -;
#X obj -88 595 *;
#X floatatom -73 572 10 0 0 0 - - -;
#X floatatom 78 273 10 0 0 0 - - -;
#X floatatom -88 397 10 0 0 0 - - -;
#X floatatom -88 619 10 0 0 0 - - -;
#X obj -13 744 nbx 5 14 -1e+37 1e+37 0 0 empty empty empty 0 -8 0 10
-262144 -1 -1 0 256;
#X obj -13 719 unsig~ 1;
#X obj -73 879 unsig~ 1;
#X msg -88 497 \$1 \$2;
#X obj -88 473 pack f f;
#X floatatom -43 446 10 0 0 0 - - -;
#X obj -88 521 line;
#X obj 76 224 loadbang;
#X obj -88 296 expr $f2 / $f1;
#X floatatom -73 902 12 0 0 0 - - -;
#X obj -89 16 inlet;
#X obj 329 927 outlet~;
#X obj 330 896 *~ 1;
#X obj 1103 223 switch~;
#X obj 1103 176 inlet;
#X obj 1066 202 tgl 15 0 empty empty empty 17 7 0 10 -262144 -1 -1
1 1;
#X obj 358 471 bng 15 250 50 0 empty empty empty 17 7 0 10 -262144
-1 -1;
#X obj 359 496 t b b;
#X obj 707 549 samplerate~;
#X floatatom 605 573 15 0 0 0 - - -;
#X floatatom 707 570 10 0 0 0 - - -;
#X obj 707 528 loadbang;
#X obj 706 502 bng 15 250 50 0 empty empty empty 17 7 0 10 -262144
-1 -1;
#X floatatom 622 629 10 0 0 0 - - -;
#X msg 360 636 0;
#X text 87 602 comment;
#X text 387 636 parar;
#X text 405 557 reproducir;
#X obj 361 560 bng 15 250 50 0 empty empty empty 17 7 0 10 -262144
-1 -1;
#X floatatom 2 582 5 0 0 0 - - -;
#X obj 1002 176 loadbang;
#X obj 550 675 bng 15 250 50 0 empty empty empty 17 7 0 10 -262144
-1 -1;
#X text 379 468 impluso de entrada;
#X text 796 606 cuenta para stop antes de repetir sample como loop
;
#X obj 360 604 loadbang;
#X msg 572 673 0;
#X obj 550 649 delay 6000;
#X msg 450 636 0;
#X obj 550 725 delay 10;
#X text 12 56 carga de sample;
#X obj 357 327 inlet;
#X obj 17 114 print;
#X obj -89 696 phasor~ 0;
#X msg 549 748 0;
#X obj -89 177 s \$0-cantidad-de-muestras3;
#X obj -88 206 r \$0-cantidad-de-muestras3;
#X obj -23 342 s \$0-frecuencia-de-lectura-sin-transposicion3;
#X obj -43 422 r \$0-frecuencia-de-lectura-interpolacion3;
#X obj 15 527 r \$0-frecuencia-de-lectura-sin-transposicion3;
#X obj 72 642 r pararsample3;
#X obj 168 643 r retrigger3;
#X obj -14 766 s \$0-posicion3;
#X obj -73 796 r \$0-cantidad-de-muestras3;
#X obj -88 976 s~ \$0-phasor3;
#X obj 329 832 tabread4~ sampler.L3;
#X obj 329 807 r~ \$0-phasor3;
#X obj 548 780 s retrigger3;
#X obj 571 700 s pararsample3;
#X obj 360 673 s pararsample3;
#X obj 451 673 s retrigger3;
#X obj 606 482 r \$0-cantidad-de-muestras3;
#X obj 326 20 r \$0-posicion3;
#X obj 605 606 expr (($f1 / $f2) * 1000) - 0.1;
#X obj 583 541 bng 15 250 50 0 empty empty empty 17 7 0 10 -262144
-1 -1;
#X obj 96 200 bng 15 250 50 0 empty empty empty 17 7 0 10 -262144 -1
-1;
#X msg -89 88 read -resize aguila/4.wav sampler.L3;
#X obj -19 66 loadbang;
#X connect 2 0 4 0;
#X connect 3 0 10 0;
#X connect 4 0 81 0;
#X connect 5 0 14 0;
#X connect 5 0 12 0;
#X connect 5 0 62 0;
#X connect 6 0 7 1;
#X connect 7 0 18 0;
#X connect 7 0 69 0;
#X connect 8 0 13 0;
#X connect 9 0 24 0;
#X connect 10 0 60 0;
#X connect 11 0 15 0;
#X connect 12 0 11 1;
#X connect 13 0 24 1;
#X connect 14 0 20 0;
#X connect 15 0 58 0;
#X connect 16 0 67 0;
#X connect 17 0 16 0;
#X connect 18 0 25 0;
#X connect 19 0 22 0;
#X connect 20 0 19 0;
#X connect 21 0 20 1;
#X connect 22 0 11 0;
#X connect 23 0 8 0;
#X connect 24 0 5 0;
#X connect 26 0 2 0;
#X connect 28 0 27 0;
#X connect 30 0 29 0;
#X connect 31 0 29 0;
#X connect 32 0 33 0;
#X connect 33 0 44 0;
#X connect 33 0 53 0;
#X connect 33 1 52 0;
#X connect 34 0 36 0;
#X connect 35 0 78 0;
#X connect 36 0 78 1;
#X connect 37 0 34 0;
#X connect 38 0 37 0;
#X connect 40 0 74 0;
#X connect 44 0 45 0;
#X connect 45 0 58 0;
#X connect 46 0 31 0;
#X connect 47 0 54 0;
#X connect 50 0 40 0;
#X connect 51 0 73 0;
#X connect 52 0 47 0;
#X connect 52 0 51 0;
#X connect 53 0 75 0;
#X connect 54 0 59 0;
#X connect 56 0 32 0;
#X connect 58 0 7 0;
#X connect 58 0 17 0;
#X connect 59 0 72 0;
#X connect 61 0 9 0;
#X connect 63 0 21 0;
#X connect 64 0 45 0;
#X connect 65 0 58 0;
#X connect 66 0 58 1;
#X connect 68 0 6 0;
#X connect 70 0 28 0;
#X connect 71 0 70 0;
#X connect 76 0 35 0;
#X connect 77 0 1 0;
#X connect 78 0 39 0;
#X connect 78 0 52 0;
#X connect 79 0 35 0;
#X connect 80 0 23 0;
#X connect 81 0 3 0;
#X connect 81 0 57 0;
#X connect 82 0 81 0;
#X restore 598 398 pd trigger_samples_for_velocity_of_100-127;
#N canvas 599 97 746 668 trigger_samples_for_velocity_of_0-75 0;
#N canvas 0 22 450 300 (subpatch) 0;
#X array sampler.L 25660 float 2;
#X coords 0 1 25660 -1 600 100 1 0 0;
#X restore 316 68 graph;
#X obj 319 822 tabread4~ sampler.L;
#X obj 319 34 hsl 600 15 0 1 0 0 empty empty empty -2 -8 0 10 -262144
-1 -1 0 1;
#X obj 319 797 r~ \$0-phasor;
#X obj 316 10 r \$0-posicion;
#X obj -99 30 bng 15 250 50 0 empty empty empty 17 7 0 10 -262144 -1
-1;
#X obj -99 115 soundfiler;
#X obj -99 48 openpanel;
#X floatatom -98 311 10 0 0 0 - - -;
#X floatatom -83 810 12 0 0 0 - - -;
#X obj -98 836 *~;
#X obj -17 240 samplerate~;
#X floatatom -98 261 15 0 0 0 - - -;
#X floatatom -99 142 12 0 0 0 - - -;
#X obj -98 966 s~ \$0-phasor;
#X obj -99 686 phasor~;
#X obj -99 167 s \$0-cantidad-de-muestras;
#X obj -98 196 r \$0-cantidad-de-muestras;
#X obj -83 786 r \$0-cantidad-de-muestras;
#X obj -98 585 *;
#X floatatom -83 562 10 0 0 0 - - -;
#X floatatom -17 261 10 0 0 0 - - -;
#X floatatom -98 387 10 0 0 0 - - -;
#X floatatom -98 609 10 0 0 0 - - -;
#X obj -23 734 nbx 5 14 -1e+37 1e+37 0 0 empty empty empty 0 -8 0 10
-262144 -1 -1 0 256;
#X obj -23 709 unsig~ 1;
#X obj -83 869 unsig~ 1;
#X msg -98 487 \$1 \$2;
#X obj -98 463 pack f f;
#X floatatom -53 436 10 0 0 0 - - -;
#X obj -53 412 r \$0-frecuencia-de-lectura-interpolacion;
#X obj -98 511 line;
#X obj -23 756 s \$0-posicion;
#X obj -59 633 r \$0-phasor-fase;
#X floatatom -59 657 10 0 0 0 - - -;
#X obj -17 219 loadbang;
#X obj -98 286 expr $f2 / $f1;
#X obj -33 332 s \$0-frecuencia-de-lectura-sin-transposicion;
#X obj 5 516 r \$0-frecuencia-de-lectura-sin-transposicion;
#X floatatom -83 892 12 0 0 0 - - -;
#X obj -99 6 inlet;
#X obj 319 917 outlet~;
#X obj 320 886 *~ 1;
#X obj 1093 213 switch~;
#X obj 1093 166 inlet;
#X obj 1056 192 tgl 15 0 empty empty empty 17 7 0 10 -262144 -1 -1
1 1;
#X obj -68 947 print;
#X obj 348 461 bng 15 250 50 0 empty empty empty 17 7 0 10 -262144
-1 -1;
#X obj 349 486 t b b;
#X obj 596 471 r \$0-cantidad-de-muestras;
#X obj 697 539 samplerate~;
#X floatatom 595 563 15 0 0 0 - - -;
#X floatatom 697 560 10 0 0 0 - - -;
#X obj 697 518 loadbang;
#X obj 696 492 bng 15 250 50 0 empty empty empty 17 7 0 10 -262144
-1 -1;
#X floatatom 612 619 10 0 0 0 - - -;
#X msg 350 626 0;
#X text 77 592 comment;
#X text 377 626 parar;
#X text 395 547 reproducir;
#X obj 351 550 bng 15 250 50 0 empty empty empty 17 7 0 10 -262144
-1 -1;
#X floatatom -8 572 5 0 0 0 - - -;
#X obj 992 166 loadbang;
#X obj 540 665 bng 15 250 50 0 empty empty empty 17 7 0 10 -262144
-1 -1;
#X text 369 458 impluso de entrada;
#X text 786 596 cuenta para stop antes de repetir sample como loop
;
#X obj 350 594 loadbang;
#X msg 562 663 0;
#X obj 62 632 r pararsample;
#X obj 149 633 r retrigger;
#X obj 561 690 s pararsample;
#X obj 350 664 s pararsample;
#X obj 595 596 expr (($f1 / $f2) * 1000) - 0.1;
#X obj -24 117 bng 15 250 50 0 empty empty empty 17 7 0 10 -262144
-1 -1;
#X obj 540 639 delay 6000;
#X obj 441 663 s retrigger;
#X msg 440 626 0;
#X obj 540 715 delay 10;
#X obj 540 776 s retrigger;
#X text -7 37 carga de sample;
#X obj 347 317 inlet;
#X msg 549 748 0;
#X msg -99 83 read -resize aguila/0.wav sampler.L;
#X obj -38 58 loadbang;
#X connect 1 0 42 0;
#X connect 3 0 1 0;
#X connect 4 0 2 0;
#X connect 5 0 7 0;
#X connect 6 0 13 0;
#X connect 7 0 82 0;
#X connect 8 0 22 0;
#X connect 8 0 20 0;
#X connect 8 0 37 0;
#X connect 9 0 10 1;
#X connect 10 0 14 0;
#X connect 10 0 26 0;
#X connect 11 0 21 0;
#X connect 12 0 36 0;
#X connect 13 0 16 0;
#X connect 15 0 10 0;
#X connect 15 0 25 0;
#X connect 17 0 12 0;
#X connect 18 0 9 0;
#X connect 19 0 23 0;
#X connect 20 0 19 1;
#X connect 21 0 36 1;
#X connect 22 0 28 0;
#X connect 23 0 15 0;
#X connect 24 0 32 0;
#X connect 25 0 24 0;
#X connect 26 0 39 0;
#X connect 27 0 31 0;
#X connect 28 0 27 0;
#X connect 29 0 28 1;
#X connect 30 0 29 0;
#X connect 31 0 19 0;
#X connect 33 0 34 0;
#X connect 34 0 15 1;
#X connect 35 0 11 0;
#X connect 36 0 8 0;
#X connect 38 0 61 0;
#X connect 40 0 5 0;
#X connect 42 0 41 0;
#X connect 44 0 43 0;
#X connect 45 0 43 0;
#X connect 47 0 48 0;
#X connect 48 0 60 0;
#X connect 48 0 76 0;
#X connect 48 1 74 0;
#X connect 49 0 51 0;
#X connect 50 0 52 0;
#X connect 51 0 72 0;
#X connect 52 0 72 1;
#X connect 53 0 50 0;
#X connect 54 0 53 0;
#X connect 56 0 71 0;
#X connect 60 0 61 0;
#X connect 61 0 15 0;
#X connect 62 0 45 0;
#X connect 63 0 77 0;
#X connect 66 0 56 0;
#X connect 67 0 70 0;
#X connect 68 0 15 0;
#X connect 69 0 15 1;
#X connect 72 0 55 0;
#X connect 72 0 74 0;
#X connect 73 0 13 0;
#X connect 74 0 63 0;
#X connect 74 0 67 0;
#X connect 76 0 75 0;
#X connect 77 0 81 0;
#X connect 80 0 47 0;
#X connect 81 0 78 0;
#X connect 82 0 6 0;
#X connect 83 0 82 0;
#X restore -41 396 pd trigger_samples_for_velocity_of_0-75;
#X obj -73 156 stripnote;
#X obj -53 -103 midiin;
#X obj -55 -79 midiparse;
#X msg -66 93 14;
#X obj -35 65 bng 15 250 50 0 empty empty empty 17 7 0 10 -262144 -1
-1;
#X obj -52 27 route 1;
#X obj 407 509 output~;
#X obj 189 372 tgl 15 0 empty empty empty 17 7 0 10 -262144 -1 -1 1
1;
#X text -42 2 routea según cada nota midi;
#X obj -42 375 bng 15 250 50 0 empty empty empty 17 7 0 10 -262144
-1 -1;
#X text 213 373 on/off;
#X text 77 375 triggea sample;
#X obj 391 361 bng 15 250 50 0 empty empty empty 17 7 0 10 -262144
-1 -1;
#X obj 504 372 tgl 15 0 empty empty empty 17 7 0 10 -262144 -1 -1 1
1;
#X obj 273 376 bng 15 250 50 0 empty empty empty 17 7 0 10 -262144
-1 -1;
#X text 528 373 on/off;
#X text 392 375 triggea sample;
#N canvas 159 74 914 766 trigger_samples_for_velocity_of_76-99 0;
#N canvas 0 22 450 300 (subpatch) 0;
#X array sampler.L2 61418 float 2;
#X coords 0 1 61418 -1 600 100 1 0 0;
#X restore 316 68 graph;
#N canvas 0 22 450 300 (subpatch) 0;
#X array sampler.R 273273 float 2;
#X coords 0 1 273273 -1 600 100 1 0 0;
#X restore 318 185 graph;
#X obj 319 34 hsl 600 15 0 1 0 0 empty empty empty -2 -8 0 10 -262144
-1 -1 0 1;
#X obj -99 30 bng 15 250 50 0 empty empty empty 17 7 0 10 -262144 -1
-1;
#X obj -99 115 soundfiler;
#X obj -98 55 openpanel;
#X floatatom -98 311 10 0 0 0 - - -;
#X floatatom -83 810 12 0 0 0 - - -;
#X obj -98 836 *~;
#X obj -17 240 samplerate~;
#X floatatom -98 261 15 0 0 0 - - -;
#X floatatom -99 142 12 0 0 0 - - -;
#X obj -98 585 *;
#X floatatom -83 562 10 0 0 0 - - -;
#X floatatom -17 261 10 0 0 0 - - -;
#X floatatom -98 387 10 0 0 0 - - -;
#X floatatom -98 609 10 0 0 0 - - -;
#X obj -23 734 nbx 5 14 -1e+37 1e+37 0 0 empty empty empty 0 -8 0 10
-262144 -1 -1 0 256;
#X obj -23 709 unsig~ 1;
#X obj -83 869 unsig~ 1;
#X msg -98 487 \$1 \$2;
#X obj -98 463 pack f f;
#X floatatom -53 436 10 0 0 0 - - -;
#X obj -98 511 line;
#X obj -17 219 loadbang;
#X obj -98 286 expr $f2 / $f1;
#X floatatom -83 892 12 0 0 0 - - -;
#X obj -99 6 inlet;
#X obj 319 917 outlet~;
#X obj 320 886 *~ 1;
#X obj 1093 213 switch~;
#X obj 1093 166 inlet;
#X obj 1056 192 tgl 15 0 empty empty empty 17 7 0 10 -262144 -1 -1
1 1;
#X obj 348 461 bng 15 250 50 0 empty empty empty 17 7 0 10 -262144
-1 -1;
#X obj 349 486 t b b;
#X obj 697 539 samplerate~;
#X floatatom 595 563 15 0 0 0 - - -;
#X floatatom 697 560 10 0 0 0 - - -;
#X obj 697 518 loadbang;
#X obj 696 492 bng 15 250 50 0 empty empty empty 17 7 0 10 -262144
-1 -1;
#X floatatom 612 619 10 0 0 0 - - -;
#X msg 350 626 0;
#X text 77 592 comment;
#X text 377 626 parar;
#X text 395 547 reproducir;
#X obj 351 550 bng 15 250 50 0 empty empty empty 17 7 0 10 -262144
-1 -1;
#X floatatom -8 572 5 0 0 0 - - -;
#X obj 992 166 loadbang;
#X obj 540 665 bng 15 250 50 0 empty empty empty 17 7 0 10 -262144
-1 -1;
#X text 369 458 impluso de entrada;
#X text 786 596 cuenta para stop antes de repetir sample como loop
;
#X obj 350 594 loadbang;
#X msg 562 663 0;
#X obj 595 596 expr (($f1 / $f2) * 1000) - 0.1;
#X obj 540 639 delay 6000;
#X msg 440 626 0;
#X obj 540 715 delay 10;
#X text 2 46 carga de sample;
#X obj 347 317 inlet;
#X obj -98 966 s~ \$0-phasor2;
#X obj 319 797 r~ \$0-phasor2;
#X obj 561 690 s pararsample2;
#X obj 538 770 s retrigger2;
#X obj 441 663 s retrigger2;
#X obj 350 663 s pararsample2;
#X obj 62 632 r pararsample2;
#X obj 158 633 r retrigger2;
#X obj -53 412 r \$0-frecuencia-de-lectura-interpolacion2;
#X obj -33 332 s \$0-frecuencia-de-lectura-sin-transposicion2;
#X obj 5 516 r \$0-frecuencia-de-lectura-sin-transposicion2;
#X obj 596 472 r \$0-cantidad-de-muestras2;
#X obj -99 167 s \$0-cantidad-de-muestras2;
#X obj -98 196 r \$0-cantidad-de-muestras2;
#X obj 7 104 print;
#X obj -83 786 r \$0-cantidad-de-muestras2;
#X obj -99 686 phasor~ 0;
#X obj 319 822 tabread4~ sampler.L2;
#X obj -23 756 s \$0-posicion2;
#X obj 316 10 r \$0-posicion2;
#X msg 539 738 0;
#X msg -99 78 read -resize aguila/3.wav sampler.L2;
#X obj -32 57 loadbang;
#X connect 3 0 5 0;
#X connect 4 0 11 0;
#X connect 5 0 80 0;
#X connect 6 0 15 0;
#X connect 6 0 13 0;
#X connect 6 0 68 0;
#X connect 7 0 8 1;
#X connect 8 0 19 0;
#X connect 8 0 59 0;
#X connect 9 0 14 0;
#X connect 10 0 25 0;
#X connect 11 0 71 0;
#X connect 12 0 16 0;
#X connect 13 0 12 1;
#X connect 14 0 25 1;
#X connect 15 0 21 0;
#X connect 16 0 75 0;
#X connect 17 0 77 0;
#X connect 18 0 17 0;
#X connect 19 0 26 0;
#X connect 20 0 23 0;
#X connect 21 0 20 0;
#X connect 22 0 21 1;
#X connect 23 0 12 0;
#X connect 24 0 9 0;
#X connect 25 0 6 0;
#X connect 27 0 3 0;
#X connect 29 0 28 0;
#X connect 31 0 30 0;
#X connect 32 0 30 0;
#X connect 33 0 34 0;
#X connect 34 0 45 0;
#X connect 34 0 55 0;
#X connect 34 1 54 0;
#X connect 35 0 37 0;
#X connect 36 0 53 0;
#X connect 37 0 53 1;
#X connect 38 0 35 0;
#X connect 39 0 38 0;
#X connect 41 0 64 0;
#X connect 45 0 46 0;
#X connect 46 0 75 0;
#X connect 47 0 32 0;
#X connect 48 0 56 0;
#X connect 51 0 41 0;
#X connect 52 0 61 0;
#X connect 53 0 40 0;
#X connect 53 0 54 0;
#X connect 54 0 48 0;
#X connect 54 0 52 0;
#X connect 55 0 63 0;
#X connect 56 0 79 0;
#X connect 58 0 33 0;
#X connect 60 0 76 0;
#X connect 65 0 75 0;
#X connect 66 0 75 1;
#X connect 67 0 22 0;
#X connect 69 0 46 0;
#X connect 70 0 36 0;
#X connect 72 0 10 0;
#X connect 74 0 7 0;
#X connect 75 0 8 0;
#X connect 75 0 18 0;
#X connect 76 0 29 0;
#X connect 78 0 2 0;
#X connect 79 0 62 0;
#X connect 80 0 4 0;
#X connect 80 0 73 0;
#X connect 81 0 80 0;
#X restore 274 396 pd trigger_samples_for_velocity_of_76-99;
#X obj 714 349 bng 15 250 50 0 empty empty empty 17 7 0 10 -262144
-1 -1;
#X obj 845 363 tgl 15 0 empty empty empty 17 7 0 10 -262144 -1 -1 1
1;
#X text 611 365 carga sample;
#X obj 592 364 bng 15 250 50 0 empty empty empty 17 7 0 10 -262144
-1 -1;
#X text 847 364 on/off;
#X text 711 366 triggea sample;
#X text -23 374 cambio de sample;
#X text 292 374 cambio de sample;
#X obj 504 340 loadbang;
#X obj 822 332 loadbang;
#X obj 441 -31 route 2;
#X obj 454 155 moses 100;
#X obj 454 213 moses 75;
#X msg 520 80 127;
#X msg 520 121 60;
#X msg 520 100 85;
#X obj 422 100 stripnote;
#X msg 429 37 14;
#X obj 460 9 bng 15 250 50 0 empty empty empty 17 7 0 10 -262144 -1
-1;
#X connect 0 0 1 0;
#X connect 0 1 26 0;
#X connect 1 0 4 0;
#X connect 1 1 20 0;
#X connect 2 0 0 0;
#X connect 3 0 0 0;
#X connect 4 0 7 1;
#X connect 5 0 0 0;
#X connect 6 0 14 0;
#X connect 6 0 14 1;
#X connect 7 0 14 0;
#X connect 7 0 14 1;
#X connect 8 1 0 0;
#X connect 9 0 10 0;
#X connect 10 0 13 0;
#X connect 10 0 36 0;
#X connect 11 0 8 0;
#X connect 13 0 11 0;
#X connect 13 0 12 0;
#X connect 13 0 8 1;
#X connect 15 0 7 2;
#X connect 17 0 7 0;
#X connect 20 0 25 1;
#X connect 21 0 25 2;
#X connect 22 0 25 0;
#X connect 25 0 14 0;
#X connect 25 0 14 1;
#X connect 26 0 6 1;
#X connect 27 0 6 2;
#X connect 29 0 6 0;
#X connect 34 0 21 0;
#X connect 36 0 42 1;
#X connect 36 0 43 0;
#X connect 36 0 44 0;
#X connect 37 0 38 0;
#X connect 39 0 37 0;
#X connect 40 0 37 0;
#X connect 41 0 37 0;
#X connect 42 1 37 0;
#X connect 43 0 42 0;
